<mxfile host="app.diagrams.net" modified="2022-06-08T13:21:00.510Z" agent="5.0 (X11; Linux x86_64) AppleWebKit/537.36 (KHTML, like Gecko) Chrome/95.0.4638.69 Safari/537.36" etag="bvoYMrR38W8lkkTsvpY2" version="18.2.0" type="github">
  <diagram name="Page-1" id="c4acf3e9-155e-7222-9cf6-157b1a14988f">
    <mxGraphModel dx="4515" dy="3798" grid="1" gridSize="10" guides="1" tooltips="1" connect="1" arrows="1" fold="1" page="1" pageScale="1" pageWidth="850" pageHeight="1100" background="#DAD2D8" math="0" shadow="0">
      <root>
        <mxCell id="0" />
        <mxCell id="1" parent="0" />
        <mxCell id="qp6mDoGpQSlHUPDBLB4e-1" value="Exposition" style="swimlane;fontStyle=1;align=center;verticalAlign=top;childLayout=stackLayout;horizontal=1;startSize=26;horizontalStack=0;resizeParent=1;resizeParentMax=0;resizeLast=0;collapsible=1;marginBottom=0;fillColor=#FAE5C7;strokeColor=#0F8B8D;fontColor=#143642;" parent="1" vertex="1">
          <mxGeometry x="150" y="590" width="160" height="60" as="geometry">
            <mxRectangle x="600" y="310" width="90" height="26" as="alternateBounds" />
          </mxGeometry>
        </mxCell>
        <mxCell id="qp6mDoGpQSlHUPDBLB4e-2" value="+ niveau: real" style="text;strokeColor=none;fillColor=none;align=left;verticalAlign=top;spacingLeft=4;spacingRight=4;overflow=hidden;rotatable=0;points=[[0,0.5],[1,0.5]];portConstraint=eastwest;fontColor=#143642;" parent="qp6mDoGpQSlHUPDBLB4e-1" vertex="1">
          <mxGeometry y="26" width="160" height="26" as="geometry" />
        </mxCell>
        <mxCell id="qp6mDoGpQSlHUPDBLB4e-3" value="" style="line;strokeWidth=1;fillColor=none;align=left;verticalAlign=middle;spacingTop=-1;spacingLeft=3;spacingRight=3;rotatable=0;labelPosition=right;points=[];portConstraint=eastwest;strokeColor=#0F8B8D;fontColor=#143642;labelBackgroundColor=#DAD2D8;" parent="qp6mDoGpQSlHUPDBLB4e-1" vertex="1">
          <mxGeometry y="52" width="160" height="8" as="geometry" />
        </mxCell>
        <mxCell id="qp6mDoGpQSlHUPDBLB4e-4" style="edgeStyle=orthogonalEdgeStyle;shape=connector;rounded=0;orthogonalLoop=1;jettySize=auto;html=1;entryX=0.5;entryY=0;entryDx=0;entryDy=0;fontFamily=Helvetica;fontSize=11;fontColor=#143642;endArrow=none;endFill=0;strokeColor=#A8201A;exitX=0.75;exitY=1;exitDx=0;exitDy=0;labelBackgroundColor=#DAD2D8;" parent="1" source="qp6mDoGpQSlHUPDBLB4e-6" target="qp6mDoGpQSlHUPDBLB4e-38" edge="1">
          <mxGeometry relative="1" as="geometry" />
        </mxCell>
        <mxCell id="qp6mDoGpQSlHUPDBLB4e-5" value="classifié par" style="edgeLabel;html=1;align=center;verticalAlign=middle;resizable=0;points=[];fontSize=11;fontFamily=Helvetica;fontColor=#143642;labelBackgroundColor=#DAD2D8;" parent="qp6mDoGpQSlHUPDBLB4e-4" vertex="1" connectable="0">
          <mxGeometry x="0.2345" relative="1" as="geometry">
            <mxPoint as="offset" />
          </mxGeometry>
        </mxCell>
        <mxCell id="qp6mDoGpQSlHUPDBLB4e-6" value="Enjeu" style="swimlane;fontStyle=1;align=center;verticalAlign=top;childLayout=stackLayout;horizontal=1;startSize=26;horizontalStack=0;resizeParent=1;resizeParentMax=0;resizeLast=0;collapsible=1;marginBottom=0;fillColor=#FAE5C7;strokeColor=#0F8B8D;fontColor=#143642;" parent="1" vertex="1">
          <mxGeometry x="410" y="510" width="160" height="60" as="geometry" />
        </mxCell>
        <mxCell id="qp6mDoGpQSlHUPDBLB4e-7" value="+ vulnérabilité: real" style="text;strokeColor=none;fillColor=none;align=left;verticalAlign=top;spacingLeft=4;spacingRight=4;overflow=hidden;rotatable=0;points=[[0,0.5],[1,0.5]];portConstraint=eastwest;fontColor=#143642;" parent="qp6mDoGpQSlHUPDBLB4e-6" vertex="1">
          <mxGeometry y="26" width="160" height="26" as="geometry" />
        </mxCell>
        <mxCell id="qp6mDoGpQSlHUPDBLB4e-8" value="" style="line;strokeWidth=1;fillColor=none;align=left;verticalAlign=middle;spacingTop=-1;spacingLeft=3;spacingRight=3;rotatable=0;labelPosition=right;points=[];portConstraint=eastwest;strokeColor=#0F8B8D;fontColor=#143642;labelBackgroundColor=#DAD2D8;" parent="qp6mDoGpQSlHUPDBLB4e-6" vertex="1">
          <mxGeometry y="52" width="160" height="8" as="geometry" />
        </mxCell>
        <mxCell id="qp6mDoGpQSlHUPDBLB4e-9" value="Aléa" style="swimlane;fontStyle=1;align=center;verticalAlign=top;childLayout=stackLayout;horizontal=1;startSize=26;horizontalStack=0;resizeParent=1;resizeParentMax=0;resizeLast=0;collapsible=1;marginBottom=0;fillColor=#FAE5C7;strokeColor=#0F8B8D;fontColor=#143642;" parent="1" vertex="1">
          <mxGeometry x="-131" y="501" width="160" height="78" as="geometry" />
        </mxCell>
        <mxCell id="qp6mDoGpQSlHUPDBLB4e-10" value="+ intensité: type intensité&#xa;+ probabilité" style="text;strokeColor=none;fillColor=none;align=left;verticalAlign=top;spacingLeft=4;spacingRight=4;overflow=hidden;rotatable=0;points=[[0,0.5],[1,0.5]];portConstraint=eastwest;fontColor=#143642;" parent="qp6mDoGpQSlHUPDBLB4e-9" vertex="1">
          <mxGeometry y="26" width="160" height="44" as="geometry" />
        </mxCell>
        <mxCell id="qp6mDoGpQSlHUPDBLB4e-11" value="" style="line;strokeWidth=1;fillColor=none;align=left;verticalAlign=middle;spacingTop=-1;spacingLeft=3;spacingRight=3;rotatable=0;labelPosition=right;points=[];portConstraint=eastwest;strokeColor=#0F8B8D;fontColor=#143642;labelBackgroundColor=#DAD2D8;" parent="qp6mDoGpQSlHUPDBLB4e-9" vertex="1">
          <mxGeometry y="70" width="160" height="8" as="geometry" />
        </mxCell>
        <mxCell id="qp6mDoGpQSlHUPDBLB4e-12" style="edgeStyle=orthogonalEdgeStyle;rounded=0;orthogonalLoop=1;jettySize=auto;html=1;exitX=0.5;exitY=0;exitDx=0;exitDy=0;endArrow=none;endFill=0;dashed=1;entryX=0.5;entryY=1;entryDx=0;entryDy=0;strokeColor=#A8201A;fontColor=#143642;labelBackgroundColor=#DAD2D8;" parent="1" source="qp6mDoGpQSlHUPDBLB4e-14" target="qp6mDoGpQSlHUPDBLB4e-18" edge="1">
          <mxGeometry relative="1" as="geometry">
            <mxPoint x="230" y="450" as="targetPoint" />
            <Array as="points">
              <mxPoint x="230" y="490" />
              <mxPoint x="230" y="490" />
            </Array>
          </mxGeometry>
        </mxCell>
        <mxCell id="qp6mDoGpQSlHUPDBLB4e-13" style="edgeStyle=elbowEdgeStyle;rounded=0;orthogonalLoop=1;jettySize=auto;html=1;exitX=1;exitY=0.5;exitDx=0;exitDy=0;endArrow=none;endFill=0;strokeColor=#A8201A;fontColor=#143642;labelBackgroundColor=#DAD2D8;" parent="1" source="qp6mDoGpQSlHUPDBLB4e-14" target="qp6mDoGpQSlHUPDBLB4e-7" edge="1">
          <mxGeometry relative="1" as="geometry">
            <mxPoint x="380" y="485" as="targetPoint" />
            <Array as="points">
              <mxPoint x="350" y="540" />
            </Array>
          </mxGeometry>
        </mxCell>
        <mxCell id="qp6mDoGpQSlHUPDBLB4e-14" value="" style="rhombus;aspect=fixed;fillColor=#FAE5C7;strokeColor=#0F8B8D;fontColor=#143642;" parent="1" vertex="1">
          <mxGeometry x="220" y="530" width="20" height="20" as="geometry" />
        </mxCell>
        <mxCell id="qp6mDoGpQSlHUPDBLB4e-15" value="" style="endArrow=none;html=1;rounded=0;align=center;verticalAlign=bottom;labelBackgroundColor=none;edgeStyle=elbowEdgeStyle;strokeColor=#A8201A;fontColor=#143642;" parent="1" target="qp6mDoGpQSlHUPDBLB4e-14" edge="1">
          <mxGeometry relative="1" as="geometry">
            <mxPoint x="30" y="540" as="sourcePoint" />
            <Array as="points">
              <mxPoint x="100" y="540" />
              <mxPoint x="120" y="540" />
            </Array>
          </mxGeometry>
        </mxCell>
        <mxCell id="qp6mDoGpQSlHUPDBLB4e-16" value="" style="endArrow=none;html=1;rounded=0;align=center;verticalAlign=bottom;labelBackgroundColor=none;entryX=0.5;entryY=0;entryDx=0;entryDy=0;edgeStyle=elbowEdgeStyle;elbow=vertical;strokeColor=#A8201A;fontColor=#143642;" parent="1" source="qp6mDoGpQSlHUPDBLB4e-14" target="qp6mDoGpQSlHUPDBLB4e-1" edge="1">
          <mxGeometry relative="1" as="geometry">
            <mxPoint x="300" y="540" as="targetPoint" />
          </mxGeometry>
        </mxCell>
        <mxCell id="qp6mDoGpQSlHUPDBLB4e-18" value="Risque" style="swimlane;fontStyle=1;align=center;verticalAlign=top;childLayout=stackLayout;horizontal=1;startSize=26;horizontalStack=0;resizeParent=1;resizeParentMax=0;resizeLast=0;collapsible=1;marginBottom=0;fillColor=#FAE5C7;strokeColor=#0F8B8D;fontColor=#143642;" parent="1" vertex="1">
          <mxGeometry x="35" y="390" width="390" height="60" as="geometry" />
        </mxCell>
        <mxCell id="qp6mDoGpQSlHUPDBLB4e-19" value="+ probabilité, éventualité d&#39;occurrence de l&#39;évén. dommageable: real" style="text;strokeColor=none;fillColor=none;align=left;verticalAlign=top;spacingLeft=4;spacingRight=4;overflow=hidden;rotatable=0;points=[[0,0.5],[1,0.5]];portConstraint=eastwest;fontColor=#143642;" parent="qp6mDoGpQSlHUPDBLB4e-18" vertex="1">
          <mxGeometry y="26" width="390" height="26" as="geometry" />
        </mxCell>
        <mxCell id="qp6mDoGpQSlHUPDBLB4e-20" value="" style="line;strokeWidth=1;fillColor=none;align=left;verticalAlign=middle;spacingTop=-1;spacingLeft=3;spacingRight=3;rotatable=0;labelPosition=right;points=[];portConstraint=eastwest;strokeColor=#0F8B8D;fontColor=#143642;labelBackgroundColor=#DAD2D8;" parent="qp6mDoGpQSlHUPDBLB4e-18" vertex="1">
          <mxGeometry y="52" width="390" height="8" as="geometry" />
        </mxCell>
        <mxCell id="qp6mDoGpQSlHUPDBLB4e-22" style="edgeStyle=orthogonalEdgeStyle;shape=connector;rounded=0;orthogonalLoop=1;jettySize=auto;html=1;exitX=1;exitY=0.5;exitDx=0;exitDy=0;entryX=0.25;entryY=0;entryDx=0;entryDy=0;fontFamily=Helvetica;fontSize=11;fontColor=#143642;endArrow=none;endFill=0;strokeColor=#A8201A;labelBackgroundColor=#DAD2D8;" parent="1" source="qp6mDoGpQSlHUPDBLB4e-23" target="qp6mDoGpQSlHUPDBLB4e-37" edge="1">
          <mxGeometry relative="1" as="geometry">
            <Array as="points">
              <mxPoint x="152.5" y="1430" />
              <mxPoint x="152.5" y="1490" />
              <mxPoint x="186.5" y="1490" />
            </Array>
          </mxGeometry>
        </mxCell>
        <mxCell id="qp6mDoGpQSlHUPDBLB4e-179" style="edgeStyle=orthogonalEdgeStyle;curved=0;rounded=1;sketch=0;orthogonalLoop=1;jettySize=auto;html=1;exitX=0;exitY=0.5;exitDx=0;exitDy=0;entryX=0;entryY=0.5;entryDx=0;entryDy=0;fontColor=#143642;strokeColor=#A8201A;fillColor=#FAE5C7;dashed=1;dashPattern=1 1;" parent="1" source="qp6mDoGpQSlHUPDBLB4e-23" target="qp6mDoGpQSlHUPDBLB4e-10" edge="1">
          <mxGeometry relative="1" as="geometry">
            <Array as="points">
              <mxPoint x="-700" y="1425" />
              <mxPoint x="-700" y="549" />
            </Array>
          </mxGeometry>
        </mxCell>
        <mxCell id="qp6mDoGpQSlHUPDBLB4e-23" value="&lt;u&gt;présence de moustique&lt;br&gt;&amp;nbsp;dans un quartier&lt;br&gt;&amp;nbsp;spécifique de Cayenne&lt;br&gt;&lt;br&gt;&lt;/u&gt;" style="html=1;fillColor=#FAE5C7;strokeColor=#0F8B8D;fontColor=#143642;" parent="1" vertex="1">
          <mxGeometry x="-73.5" y="1400" width="135" height="50" as="geometry" />
        </mxCell>
        <mxCell id="qp6mDoGpQSlHUPDBLB4e-24" style="edgeStyle=orthogonalEdgeStyle;rounded=0;orthogonalLoop=1;jettySize=auto;html=1;dashed=1;dashPattern=1 1;endArrow=open;endFill=0;entryX=1.004;entryY=-0.098;entryDx=0;entryDy=0;strokeColor=#A8201A;fontColor=#143642;labelBackgroundColor=#DAD2D8;entryPerimeter=0;exitX=0.5;exitY=1;exitDx=0;exitDy=0;" parent="1" source="qp6mDoGpQSlHUPDBLB4e-27" target="qp6mDoGpQSlHUPDBLB4e-7" edge="1">
          <mxGeometry relative="1" as="geometry">
            <mxPoint x="410" y="830" as="targetPoint" />
            <Array as="points">
              <mxPoint x="430" y="1480" />
              <mxPoint x="1410" y="1480" />
              <mxPoint x="1410" y="534" />
            </Array>
          </mxGeometry>
        </mxCell>
        <mxCell id="qp6mDoGpQSlHUPDBLB4e-25" style="edgeStyle=orthogonalEdgeStyle;shape=connector;rounded=0;orthogonalLoop=1;jettySize=auto;html=1;entryX=0;entryY=0.5;entryDx=0;entryDy=0;fontFamily=Helvetica;fontSize=11;fontColor=#143642;endArrow=none;endFill=0;strokeColor=#A8201A;exitX=1;exitY=0.5;exitDx=0;exitDy=0;labelBackgroundColor=#DAD2D8;" parent="1" source="qp6mDoGpQSlHUPDBLB4e-27" target="qp6mDoGpQSlHUPDBLB4e-45" edge="1">
          <mxGeometry relative="1" as="geometry" />
        </mxCell>
        <mxCell id="qp6mDoGpQSlHUPDBLB4e-26" value="O1: classifié par" style="edgeLabel;html=1;align=center;verticalAlign=middle;resizable=0;points=[];fontSize=11;fontFamily=Helvetica;fontColor=#143642;labelBackgroundColor=#DAD2D8;" parent="qp6mDoGpQSlHUPDBLB4e-25" vertex="1" connectable="0">
          <mxGeometry x="-0.3381" y="1" relative="1" as="geometry">
            <mxPoint x="14" y="-16" as="offset" />
          </mxGeometry>
        </mxCell>
        <mxCell id="qp6mDoGpQSlHUPDBLB4e-27" value="&lt;u&gt;Jef&lt;/u&gt;" style="html=1;fillColor=#FAE5C7;strokeColor=#0F8B8D;fontColor=#143642;" parent="1" vertex="1">
          <mxGeometry x="362.5" y="1410" width="135" height="50" as="geometry" />
        </mxCell>
        <mxCell id="qp6mDoGpQSlHUPDBLB4e-28" style="edgeStyle=orthogonalEdgeStyle;rounded=0;orthogonalLoop=1;jettySize=auto;html=1;entryX=0.5;entryY=1;entryDx=0;entryDy=0;endArrow=open;endFill=0;dashed=1;dashPattern=1 1;strokeColor=#A8201A;fontColor=#143642;labelBackgroundColor=#DAD2D8;" parent="1" source="qp6mDoGpQSlHUPDBLB4e-30" target="qp6mDoGpQSlHUPDBLB4e-1" edge="1">
          <mxGeometry relative="1" as="geometry" />
        </mxCell>
        <mxCell id="qp6mDoGpQSlHUPDBLB4e-29" style="edgeStyle=orthogonalEdgeStyle;shape=connector;rounded=0;orthogonalLoop=1;jettySize=auto;html=1;exitX=0.5;exitY=1;exitDx=0;exitDy=0;entryX=0.5;entryY=0;entryDx=0;entryDy=0;fontFamily=Helvetica;fontSize=11;fontColor=#143642;endArrow=none;endFill=0;strokeColor=#A8201A;labelBackgroundColor=#DAD2D8;" parent="1" source="qp6mDoGpQSlHUPDBLB4e-30" target="qp6mDoGpQSlHUPDBLB4e-37" edge="1">
          <mxGeometry relative="1" as="geometry" />
        </mxCell>
        <mxCell id="qp6mDoGpQSlHUPDBLB4e-30" value="&lt;u&gt;Jef habite&amp;nbsp; &lt;br&gt;dans ce quartier&lt;br&gt;&lt;br&gt;&lt;/u&gt;" style="html=1;fillColor=#FAE5C7;strokeColor=#0F8B8D;fontColor=#143642;" parent="1" vertex="1">
          <mxGeometry x="192.5" y="1390" width="135" height="50" as="geometry" />
        </mxCell>
        <mxCell id="qp6mDoGpQSlHUPDBLB4e-36" style="edgeStyle=orthogonalEdgeStyle;shape=connector;rounded=0;orthogonalLoop=1;jettySize=auto;html=1;entryX=0.5;entryY=1;entryDx=0;entryDy=0;fontFamily=Helvetica;fontSize=11;fontColor=#143642;endArrow=none;endFill=0;strokeColor=#A8201A;exitX=0.75;exitY=0;exitDx=0;exitDy=0;labelBackgroundColor=#DAD2D8;" parent="1" source="qp6mDoGpQSlHUPDBLB4e-37" target="qp6mDoGpQSlHUPDBLB4e-27" edge="1">
          <mxGeometry relative="1" as="geometry" />
        </mxCell>
        <mxCell id="qp6mDoGpQSlHUPDBLB4e-188" style="edgeStyle=orthogonalEdgeStyle;rounded=0;sketch=0;orthogonalLoop=1;jettySize=auto;html=1;exitX=0;exitY=0.5;exitDx=0;exitDy=0;entryX=0;entryY=0.5;entryDx=0;entryDy=0;dashed=1;dashPattern=1 1;fontColor=#143642;endArrow=open;endFill=0;strokeColor=#A8201A;fillColor=#FAE5C7;" parent="1" source="qp6mDoGpQSlHUPDBLB4e-37" target="qp6mDoGpQSlHUPDBLB4e-19" edge="1">
          <mxGeometry relative="1" as="geometry">
            <Array as="points">
              <mxPoint x="-770" y="1565" />
              <mxPoint x="-770" y="429" />
            </Array>
          </mxGeometry>
        </mxCell>
        <mxCell id="qp6mDoGpQSlHUPDBLB4e-37" value="&lt;u&gt;Piqûre&amp;nbsp;sur Jef&lt;/u&gt;" style="html=1;fillColor=#FAE5C7;strokeColor=#0F8B8D;fontColor=#143642;" parent="1" vertex="1">
          <mxGeometry x="152.5" y="1540" width="135" height="50" as="geometry" />
        </mxCell>
        <mxCell id="qp6mDoGpQSlHUPDBLB4e-38" value="Type enjeu" style="swimlane;fontStyle=1;align=center;verticalAlign=top;childLayout=stackLayout;horizontal=1;startSize=26;horizontalStack=0;resizeParent=1;resizeParentMax=0;resizeLast=0;collapsible=1;marginBottom=0;fillColor=#FAE5C7;strokeColor=#0F8B8D;fontColor=#143642;" parent="1" vertex="1">
          <mxGeometry x="530" y="742" width="100" height="56" as="geometry" />
        </mxCell>
        <mxCell id="qp6mDoGpQSlHUPDBLB4e-39" value="+ label: char" style="text;strokeColor=none;fillColor=none;align=left;verticalAlign=top;spacingLeft=4;spacingRight=4;overflow=hidden;rotatable=0;points=[[0,0.5],[1,0.5]];portConstraint=eastwest;fontColor=#143642;" parent="qp6mDoGpQSlHUPDBLB4e-38" vertex="1">
          <mxGeometry y="26" width="100" height="22" as="geometry" />
        </mxCell>
        <mxCell id="qp6mDoGpQSlHUPDBLB4e-40" value="" style="line;strokeWidth=1;fillColor=none;align=left;verticalAlign=middle;spacingTop=-1;spacingLeft=3;spacingRight=3;rotatable=0;labelPosition=right;points=[];portConstraint=eastwest;strokeColor=#0F8B8D;fontColor=#143642;labelBackgroundColor=#DAD2D8;" parent="qp6mDoGpQSlHUPDBLB4e-38" vertex="1">
          <mxGeometry y="48" width="100" height="8" as="geometry" />
        </mxCell>
        <mxCell id="qp6mDoGpQSlHUPDBLB4e-41" value="1" style="text;html=1;align=center;verticalAlign=middle;resizable=0;points=[];autosize=1;strokeColor=none;fillColor=none;fontSize=11;fontFamily=Helvetica;fontColor=#143642;" parent="1" vertex="1">
          <mxGeometry x="576.5" y="725" width="20" height="20" as="geometry" />
        </mxCell>
        <mxCell id="qp6mDoGpQSlHUPDBLB4e-42" value="*" style="text;html=1;align=center;verticalAlign=middle;resizable=0;points=[];autosize=1;strokeColor=none;fillColor=none;fontSize=11;fontFamily=Helvetica;fontColor=#143642;" parent="1" vertex="1">
          <mxGeometry x="497.5" y="530" width="20" height="20" as="geometry" />
        </mxCell>
        <mxCell id="qp6mDoGpQSlHUPDBLB4e-43" style="edgeStyle=orthogonalEdgeStyle;shape=connector;rounded=0;orthogonalLoop=1;jettySize=auto;html=1;entryX=0.5;entryY=1;entryDx=0;entryDy=0;fontFamily=Helvetica;fontSize=11;fontColor=#143642;endArrow=open;endFill=0;strokeColor=#A8201A;dashed=1;dashPattern=1 1;labelBackgroundColor=#DAD2D8;" parent="1" source="qp6mDoGpQSlHUPDBLB4e-44" target="qp6mDoGpQSlHUPDBLB4e-38" edge="1">
          <mxGeometry relative="1" as="geometry" />
        </mxCell>
        <mxCell id="qp6mDoGpQSlHUPDBLB4e-44" value="H" style="swimlane;fontStyle=4;childLayout=stackLayout;horizontal=1;startSize=26;fillColor=none;horizontalStack=0;resizeParent=1;resizeParentMax=0;resizeLast=0;collapsible=1;marginBottom=0;fontFamily=Helvetica;fontSize=11;fontColor=#143642;strokeColor=#0F8B8D;" parent="1" vertex="1">
          <mxGeometry x="560" y="1300" width="90" height="52" as="geometry">
            <mxRectangle x="610" y="510" width="40" height="26" as="alternateBounds" />
          </mxGeometry>
        </mxCell>
        <mxCell id="qp6mDoGpQSlHUPDBLB4e-45" value="label=&quot;Humain&quot;" style="text;strokeColor=none;fillColor=none;align=left;verticalAlign=top;spacingLeft=4;spacingRight=4;overflow=hidden;rotatable=0;points=[[0,0.5],[1,0.5]];portConstraint=eastwest;fontFamily=Helvetica;fontSize=11;fontColor=#143642;" parent="qp6mDoGpQSlHUPDBLB4e-44" vertex="1">
          <mxGeometry y="26" width="90" height="26" as="geometry" />
        </mxCell>
        <mxCell id="qp6mDoGpQSlHUPDBLB4e-47" value="P" style="swimlane;fontStyle=4;childLayout=stackLayout;horizontal=1;startSize=26;fillColor=none;horizontalStack=0;resizeParent=1;resizeParentMax=0;resizeLast=0;collapsible=1;marginBottom=0;fontFamily=Helvetica;fontSize=11;fontColor=#143642;strokeColor=#0F8B8D;" parent="1" vertex="1">
          <mxGeometry x="670" y="1300" width="100" height="52" as="geometry">
            <mxRectangle x="610" y="510" width="40" height="26" as="alternateBounds" />
          </mxGeometry>
        </mxCell>
        <mxCell id="qp6mDoGpQSlHUPDBLB4e-48" value="label=&quot;Population&quot;" style="text;strokeColor=none;fillColor=none;align=left;verticalAlign=top;spacingLeft=4;spacingRight=4;overflow=hidden;rotatable=0;points=[[0,0.5],[1,0.5]];portConstraint=eastwest;fontFamily=Helvetica;fontSize=11;fontColor=#143642;" parent="qp6mDoGpQSlHUPDBLB4e-47" vertex="1">
          <mxGeometry y="26" width="100" height="26" as="geometry" />
        </mxCell>
        <mxCell id="qp6mDoGpQSlHUPDBLB4e-53" style="edgeStyle=orthogonalEdgeStyle;sketch=0;orthogonalLoop=1;jettySize=auto;html=1;exitX=0.5;exitY=0;exitDx=0;exitDy=0;fontColor=#143642;strokeColor=#A8201A;fillColor=#FAE5C7;endArrow=block;endFill=0;rounded=0;labelBackgroundColor=#DAD2D8;" parent="1" source="qp6mDoGpQSlHUPDBLB4e-49" edge="1">
          <mxGeometry relative="1" as="geometry">
            <mxPoint x="-50" y="580" as="targetPoint" />
            <Array as="points">
              <mxPoint x="-50" y="640" />
              <mxPoint x="-50" y="640" />
            </Array>
          </mxGeometry>
        </mxCell>
        <mxCell id="qp6mDoGpQSlHUPDBLB4e-49" value="Occurence de vecteurs" style="swimlane;fontStyle=1;align=center;verticalAlign=top;childLayout=stackLayout;horizontal=1;startSize=26;horizontalStack=0;resizeParent=1;resizeParentMax=0;resizeLast=0;collapsible=1;marginBottom=0;fillColor=#FAE5C7;strokeColor=#0F8B8D;fontColor=#143642;" parent="1" vertex="1">
          <mxGeometry x="-135" y="664" width="170" height="78" as="geometry" />
        </mxCell>
        <mxCell id="qp6mDoGpQSlHUPDBLB4e-50" value="+ présence&#xa;+ abondance&#xa;+ localisation&#xa;" style="text;strokeColor=none;fillColor=none;align=left;verticalAlign=top;spacingLeft=4;spacingRight=4;overflow=hidden;rotatable=0;points=[[0,0.5],[1,0.5]];portConstraint=eastwest;fontColor=#143642;" parent="qp6mDoGpQSlHUPDBLB4e-49" vertex="1">
          <mxGeometry y="26" width="170" height="44" as="geometry" />
        </mxCell>
        <mxCell id="qp6mDoGpQSlHUPDBLB4e-51" value="" style="line;strokeWidth=1;fillColor=none;align=left;verticalAlign=middle;spacingTop=-1;spacingLeft=3;spacingRight=3;rotatable=0;labelPosition=right;points=[];portConstraint=eastwest;strokeColor=#0F8B8D;fontColor=#143642;labelBackgroundColor=#DAD2D8;" parent="qp6mDoGpQSlHUPDBLB4e-49" vertex="1">
          <mxGeometry y="70" width="170" height="8" as="geometry" />
        </mxCell>
        <mxCell id="qp6mDoGpQSlHUPDBLB4e-57" value="Piqure(s)" style="swimlane;fontStyle=1;align=center;verticalAlign=top;childLayout=stackLayout;horizontal=1;startSize=26;horizontalStack=0;resizeParent=1;resizeParentMax=0;resizeLast=0;collapsible=1;marginBottom=0;fillColor=#FAE5C7;strokeColor=#0F8B8D;fontColor=#143642;" parent="1" vertex="1">
          <mxGeometry x="830" y="880" width="150" height="78" as="geometry" />
        </mxCell>
        <mxCell id="qp6mDoGpQSlHUPDBLB4e-157" value="+ " style="text;strokeColor=none;fillColor=none;align=left;verticalAlign=top;spacingLeft=4;spacingRight=4;overflow=hidden;rotatable=0;points=[[0,0.5],[1,0.5]];portConstraint=eastwest;fontColor=#143642;" parent="qp6mDoGpQSlHUPDBLB4e-57" vertex="1">
          <mxGeometry y="26" width="150" height="44" as="geometry" />
        </mxCell>
        <mxCell id="qp6mDoGpQSlHUPDBLB4e-59" value="" style="line;strokeWidth=1;fillColor=none;align=left;verticalAlign=middle;spacingTop=-1;spacingLeft=3;spacingRight=3;rotatable=0;labelPosition=right;points=[];portConstraint=eastwest;strokeColor=#0F8B8D;fontColor=#143642;labelBackgroundColor=#DAD2D8;" parent="qp6mDoGpQSlHUPDBLB4e-57" vertex="1">
          <mxGeometry y="70" width="150" height="8" as="geometry" />
        </mxCell>
        <mxCell id="qp6mDoGpQSlHUPDBLB4e-63" style="edgeStyle=orthogonalEdgeStyle;rounded=0;sketch=0;orthogonalLoop=1;jettySize=auto;html=1;exitX=0.5;exitY=0;exitDx=0;exitDy=0;entryX=0.5;entryY=1;entryDx=0;entryDy=0;fontColor=#143642;endArrow=diamondThin;endFill=0;strokeColor=#A8201A;fillColor=#FAE5C7;labelBackgroundColor=#DAD2D8;" parent="1" source="qp6mDoGpQSlHUPDBLB4e-60" target="qp6mDoGpQSlHUPDBLB4e-57" edge="1">
          <mxGeometry relative="1" as="geometry" />
        </mxCell>
        <mxCell id="qp6mDoGpQSlHUPDBLB4e-60" value="Piqure(s) infectante(s)" style="swimlane;fontStyle=1;align=center;verticalAlign=top;childLayout=stackLayout;horizontal=1;startSize=26;horizontalStack=0;resizeParent=1;resizeParentMax=0;resizeLast=0;collapsible=1;marginBottom=0;fillColor=#FAE5C7;strokeColor=#0F8B8D;fontColor=#143642;" parent="1" vertex="1">
          <mxGeometry x="830" y="1042" width="150" height="68" as="geometry" />
        </mxCell>
        <mxCell id="qp6mDoGpQSlHUPDBLB4e-61" value="+" style="text;strokeColor=none;fillColor=none;align=left;verticalAlign=top;spacingLeft=4;spacingRight=4;overflow=hidden;rotatable=0;points=[[0,0.5],[1,0.5]];portConstraint=eastwest;fontColor=#143642;" parent="qp6mDoGpQSlHUPDBLB4e-60" vertex="1">
          <mxGeometry y="26" width="150" height="34" as="geometry" />
        </mxCell>
        <mxCell id="qp6mDoGpQSlHUPDBLB4e-62" value="" style="line;strokeWidth=1;fillColor=none;align=left;verticalAlign=middle;spacingTop=-1;spacingLeft=3;spacingRight=3;rotatable=0;labelPosition=right;points=[];portConstraint=eastwest;strokeColor=#0F8B8D;fontColor=#143642;labelBackgroundColor=#DAD2D8;" parent="qp6mDoGpQSlHUPDBLB4e-60" vertex="1">
          <mxGeometry y="60" width="150" height="8" as="geometry" />
        </mxCell>
        <mxCell id="qp6mDoGpQSlHUPDBLB4e-142" style="edgeStyle=orthogonalEdgeStyle;rounded=0;sketch=0;orthogonalLoop=1;jettySize=auto;html=1;exitX=0.5;exitY=0;exitDx=0;exitDy=0;entryX=0.5;entryY=1;entryDx=0;entryDy=0;fontColor=#143642;endArrow=none;endFill=0;strokeColor=#A8201A;fillColor=#FAE5C7;labelBackgroundColor=#DAD2D8;" parent="1" source="qp6mDoGpQSlHUPDBLB4e-126" target="qp6mDoGpQSlHUPDBLB4e-49" edge="1">
          <mxGeometry relative="1" as="geometry">
            <Array as="points">
              <mxPoint x="-50" y="820" />
            </Array>
          </mxGeometry>
        </mxCell>
        <mxCell id="qp6mDoGpQSlHUPDBLB4e-126" value="Présence de gîtes larvaires" style="swimlane;fontStyle=1;align=center;verticalAlign=top;childLayout=stackLayout;horizontal=1;startSize=26;horizontalStack=0;resizeParent=1;resizeParentMax=0;resizeLast=0;collapsible=1;marginBottom=0;fillColor=#FAE5C7;strokeColor=#0F8B8D;fontColor=#143642;" parent="1" vertex="1">
          <mxGeometry x="-136" y="820" width="180" height="78" as="geometry" />
        </mxCell>
        <mxCell id="qp6mDoGpQSlHUPDBLB4e-127" value="+ localisation : geometry&#xa;+ densité&#xa;" style="text;strokeColor=none;fillColor=none;align=left;verticalAlign=top;spacingLeft=4;spacingRight=4;overflow=hidden;rotatable=0;points=[[0,0.5],[1,0.5]];portConstraint=eastwest;fontColor=#143642;" parent="qp6mDoGpQSlHUPDBLB4e-126" vertex="1">
          <mxGeometry y="26" width="180" height="44" as="geometry" />
        </mxCell>
        <mxCell id="qp6mDoGpQSlHUPDBLB4e-128" value="" style="line;strokeWidth=1;fillColor=none;align=left;verticalAlign=middle;spacingTop=-1;spacingLeft=3;spacingRight=3;rotatable=0;labelPosition=right;points=[];portConstraint=eastwest;strokeColor=#0F8B8D;fontColor=#143642;labelBackgroundColor=#DAD2D8;" parent="qp6mDoGpQSlHUPDBLB4e-126" vertex="1">
          <mxGeometry y="70" width="180" height="8" as="geometry" />
        </mxCell>
        <mxCell id="qp6mDoGpQSlHUPDBLB4e-136" style="edgeStyle=orthogonalEdgeStyle;rounded=0;sketch=0;orthogonalLoop=1;jettySize=auto;html=1;exitX=0.5;exitY=0;exitDx=0;exitDy=0;entryX=0;entryY=0.5;entryDx=0;entryDy=0;fontColor=#143642;endArrow=none;endFill=0;strokeColor=#A8201A;fillColor=#FAE5C7;labelBackgroundColor=#DAD2D8;" parent="1" source="qp6mDoGpQSlHUPDBLB4e-130" target="qp6mDoGpQSlHUPDBLB4e-127" edge="1">
          <mxGeometry relative="1" as="geometry" />
        </mxCell>
        <mxCell id="qp6mDoGpQSlHUPDBLB4e-130" value="Occupation du sol" style="swimlane;fontStyle=1;align=center;verticalAlign=top;childLayout=stackLayout;horizontal=1;startSize=26;horizontalStack=0;resizeParent=1;resizeParentMax=0;resizeLast=0;collapsible=1;marginBottom=0;fillColor=#FAE5C7;strokeColor=#0F8B8D;fontColor=#143642;" parent="1" vertex="1">
          <mxGeometry x="-290" y="980" width="180" height="78" as="geometry" />
        </mxCell>
        <mxCell id="qp6mDoGpQSlHUPDBLB4e-131" value="+" style="text;strokeColor=none;fillColor=none;align=left;verticalAlign=top;spacingLeft=4;spacingRight=4;overflow=hidden;rotatable=0;points=[[0,0.5],[1,0.5]];portConstraint=eastwest;fontColor=#143642;" parent="qp6mDoGpQSlHUPDBLB4e-130" vertex="1">
          <mxGeometry y="26" width="180" height="44" as="geometry" />
        </mxCell>
        <mxCell id="qp6mDoGpQSlHUPDBLB4e-132" value="" style="line;strokeWidth=1;fillColor=none;align=left;verticalAlign=middle;spacingTop=-1;spacingLeft=3;spacingRight=3;rotatable=0;labelPosition=right;points=[];portConstraint=eastwest;strokeColor=#0F8B8D;fontColor=#143642;labelBackgroundColor=#DAD2D8;" parent="qp6mDoGpQSlHUPDBLB4e-130" vertex="1">
          <mxGeometry y="70" width="180" height="8" as="geometry" />
        </mxCell>
        <mxCell id="qp6mDoGpQSlHUPDBLB4e-166" style="edgeStyle=orthogonalEdgeStyle;rounded=0;sketch=0;orthogonalLoop=1;jettySize=auto;html=1;exitX=0.5;exitY=0;exitDx=0;exitDy=0;entryX=0;entryY=0.5;entryDx=0;entryDy=0;fontColor=#143642;endArrow=none;endFill=0;strokeColor=#A8201A;fillColor=#FAE5C7;labelBackgroundColor=#DAD2D8;" parent="1" source="qp6mDoGpQSlHUPDBLB4e-133" target="qp6mDoGpQSlHUPDBLB4e-131" edge="1">
          <mxGeometry relative="1" as="geometry" />
        </mxCell>
        <mxCell id="qp6mDoGpQSlHUPDBLB4e-176" style="edgeStyle=orthogonalEdgeStyle;curved=0;rounded=1;sketch=0;orthogonalLoop=1;jettySize=auto;html=1;exitX=0.5;exitY=0;exitDx=0;exitDy=0;entryX=0.5;entryY=1;entryDx=0;entryDy=0;fontColor=#143642;strokeColor=#A8201A;fillColor=#FAE5C7;" parent="1" source="qp6mDoGpQSlHUPDBLB4e-133" target="qp6mDoGpQSlHUPDBLB4e-172" edge="1">
          <mxGeometry relative="1" as="geometry" />
        </mxCell>
        <mxCell id="qp6mDoGpQSlHUPDBLB4e-133" value="Précipitation" style="swimlane;fontStyle=1;align=center;verticalAlign=top;childLayout=stackLayout;horizontal=1;startSize=26;horizontalStack=0;resizeParent=1;resizeParentMax=0;resizeLast=0;collapsible=1;marginBottom=0;fillColor=#FAE5C7;strokeColor=#0F8B8D;fontColor=#143642;" parent="1" vertex="1">
          <mxGeometry x="-660" y="1128" width="180" height="78" as="geometry" />
        </mxCell>
        <mxCell id="qp6mDoGpQSlHUPDBLB4e-134" value="+" style="text;strokeColor=none;fillColor=none;align=left;verticalAlign=top;spacingLeft=4;spacingRight=4;overflow=hidden;rotatable=0;points=[[0,0.5],[1,0.5]];portConstraint=eastwest;fontColor=#143642;" parent="qp6mDoGpQSlHUPDBLB4e-133" vertex="1">
          <mxGeometry y="26" width="180" height="44" as="geometry" />
        </mxCell>
        <mxCell id="qp6mDoGpQSlHUPDBLB4e-135" value="" style="line;strokeWidth=1;fillColor=none;align=left;verticalAlign=middle;spacingTop=-1;spacingLeft=3;spacingRight=3;rotatable=0;labelPosition=right;points=[];portConstraint=eastwest;strokeColor=#0F8B8D;fontColor=#143642;labelBackgroundColor=#DAD2D8;" parent="qp6mDoGpQSlHUPDBLB4e-133" vertex="1">
          <mxGeometry y="70" width="180" height="8" as="geometry" />
        </mxCell>
        <mxCell id="qp6mDoGpQSlHUPDBLB4e-137" value="Contribue" style="text;html=1;strokeColor=none;fillColor=none;align=center;verticalAlign=middle;whiteSpace=wrap;rounded=0;sketch=0;fontColor=#143642;" parent="1" vertex="1">
          <mxGeometry x="-540" y="994" width="60" height="30" as="geometry" />
        </mxCell>
        <mxCell id="qp6mDoGpQSlHUPDBLB4e-165" style="edgeStyle=orthogonalEdgeStyle;rounded=0;sketch=0;orthogonalLoop=1;jettySize=auto;html=1;exitX=0.5;exitY=0;exitDx=0;exitDy=0;entryX=0;entryY=0.5;entryDx=0;entryDy=0;fontColor=#143642;strokeColor=#A8201A;fillColor=#FAE5C7;endArrow=none;endFill=0;labelBackgroundColor=#DAD2D8;" parent="1" source="qp6mDoGpQSlHUPDBLB4e-139" target="qp6mDoGpQSlHUPDBLB4e-131" edge="1">
          <mxGeometry relative="1" as="geometry" />
        </mxCell>
        <mxCell id="qp6mDoGpQSlHUPDBLB4e-178" style="edgeStyle=orthogonalEdgeStyle;curved=0;rounded=1;sketch=0;orthogonalLoop=1;jettySize=auto;html=1;exitX=0.5;exitY=0;exitDx=0;exitDy=0;entryX=0.5;entryY=1;entryDx=0;entryDy=0;fontColor=#143642;strokeColor=#A8201A;fillColor=#FAE5C7;" parent="1" source="qp6mDoGpQSlHUPDBLB4e-139" target="qp6mDoGpQSlHUPDBLB4e-172" edge="1">
          <mxGeometry relative="1" as="geometry" />
        </mxCell>
        <mxCell id="qp6mDoGpQSlHUPDBLB4e-139" value="Température" style="swimlane;fontStyle=1;align=center;verticalAlign=top;childLayout=stackLayout;horizontal=1;startSize=26;horizontalStack=0;resizeParent=1;resizeParentMax=0;resizeLast=0;collapsible=1;marginBottom=0;fillColor=#FAE5C7;strokeColor=#0F8B8D;fontColor=#143642;" parent="1" vertex="1">
          <mxGeometry x="-470" y="1058" width="180" height="78" as="geometry" />
        </mxCell>
        <mxCell id="qp6mDoGpQSlHUPDBLB4e-140" value="+" style="text;strokeColor=none;fillColor=none;align=left;verticalAlign=top;spacingLeft=4;spacingRight=4;overflow=hidden;rotatable=0;points=[[0,0.5],[1,0.5]];portConstraint=eastwest;fontColor=#143642;" parent="qp6mDoGpQSlHUPDBLB4e-139" vertex="1">
          <mxGeometry y="26" width="180" height="44" as="geometry" />
        </mxCell>
        <mxCell id="qp6mDoGpQSlHUPDBLB4e-141" value="" style="line;strokeWidth=1;fillColor=none;align=left;verticalAlign=middle;spacingTop=-1;spacingLeft=3;spacingRight=3;rotatable=0;labelPosition=right;points=[];portConstraint=eastwest;strokeColor=#0F8B8D;fontColor=#143642;labelBackgroundColor=#DAD2D8;" parent="qp6mDoGpQSlHUPDBLB4e-139" vertex="1">
          <mxGeometry y="70" width="180" height="8" as="geometry" />
        </mxCell>
        <mxCell id="qp6mDoGpQSlHUPDBLB4e-144" value="Agent pathogène" style="swimlane;fontStyle=1;align=center;verticalAlign=top;childLayout=stackLayout;horizontal=1;startSize=26;horizontalStack=0;resizeParent=1;resizeParentMax=0;resizeLast=0;collapsible=1;marginBottom=0;fillColor=#FAE5C7;strokeColor=#0F8B8D;fontColor=#143642;" parent="1" vertex="1">
          <mxGeometry x="1074.5" y="1040" width="150" height="80" as="geometry" />
        </mxCell>
        <mxCell id="qp6mDoGpQSlHUPDBLB4e-145" value="+ type: char" style="text;strokeColor=none;fillColor=none;align=left;verticalAlign=top;spacingLeft=4;spacingRight=4;overflow=hidden;rotatable=0;points=[[0,0.5],[1,0.5]];portConstraint=eastwest;fontColor=#143642;" parent="qp6mDoGpQSlHUPDBLB4e-144" vertex="1">
          <mxGeometry y="26" width="150" height="44" as="geometry" />
        </mxCell>
        <mxCell id="qp6mDoGpQSlHUPDBLB4e-146" value="" style="line;strokeWidth=1;fillColor=none;align=left;verticalAlign=middle;spacingTop=-1;spacingLeft=3;spacingRight=3;rotatable=0;labelPosition=right;points=[];portConstraint=eastwest;strokeColor=#0F8B8D;fontColor=#143642;labelBackgroundColor=#DAD2D8;" parent="qp6mDoGpQSlHUPDBLB4e-144" vertex="1">
          <mxGeometry y="70" width="150" height="10" as="geometry" />
        </mxCell>
        <mxCell id="qp6mDoGpQSlHUPDBLB4e-151" style="edgeStyle=orthogonalEdgeStyle;rounded=0;sketch=0;orthogonalLoop=1;jettySize=auto;html=1;exitX=0.5;exitY=0;exitDx=0;exitDy=0;entryX=0.5;entryY=1;entryDx=0;entryDy=0;fontColor=#143642;endArrow=block;endFill=0;strokeColor=#A8201A;fillColor=#FAE5C7;labelBackgroundColor=#DAD2D8;" parent="1" source="qp6mDoGpQSlHUPDBLB4e-147" target="qp6mDoGpQSlHUPDBLB4e-144" edge="1">
          <mxGeometry relative="1" as="geometry" />
        </mxCell>
        <mxCell id="qp6mDoGpQSlHUPDBLB4e-147" value="Virus" style="swimlane;fontStyle=1;align=center;verticalAlign=top;childLayout=stackLayout;horizontal=1;startSize=26;horizontalStack=0;resizeParent=1;resizeParentMax=0;resizeLast=0;collapsible=1;marginBottom=0;fillColor=#FAE5C7;strokeColor=#0F8B8D;fontColor=#143642;" parent="1" vertex="1">
          <mxGeometry x="1099" y="1190" width="101" height="80" as="geometry" />
        </mxCell>
        <mxCell id="qp6mDoGpQSlHUPDBLB4e-148" value="+ genre: char" style="text;strokeColor=none;fillColor=none;align=left;verticalAlign=top;spacingLeft=4;spacingRight=4;overflow=hidden;rotatable=0;points=[[0,0.5],[1,0.5]];portConstraint=eastwest;fontColor=#143642;" parent="qp6mDoGpQSlHUPDBLB4e-147" vertex="1">
          <mxGeometry y="26" width="101" height="44" as="geometry" />
        </mxCell>
        <mxCell id="qp6mDoGpQSlHUPDBLB4e-149" value="" style="line;strokeWidth=1;fillColor=none;align=left;verticalAlign=middle;spacingTop=-1;spacingLeft=3;spacingRight=3;rotatable=0;labelPosition=right;points=[];portConstraint=eastwest;strokeColor=#0F8B8D;fontColor=#143642;labelBackgroundColor=#DAD2D8;" parent="qp6mDoGpQSlHUPDBLB4e-147" vertex="1">
          <mxGeometry y="70" width="101" height="10" as="geometry" />
        </mxCell>
        <mxCell id="qp6mDoGpQSlHUPDBLB4e-152" value="Type activité" style="swimlane;fontStyle=1;align=center;verticalAlign=top;childLayout=stackLayout;horizontal=1;startSize=26;horizontalStack=0;resizeParent=1;resizeParentMax=0;resizeLast=0;collapsible=1;marginBottom=0;fillColor=#FAE5C7;strokeColor=#0F8B8D;fontColor=#143642;" parent="1" vertex="1">
          <mxGeometry x="730" y="741" width="130" height="58" as="geometry" />
        </mxCell>
        <mxCell id="qp6mDoGpQSlHUPDBLB4e-153" value="+ label: char" style="text;strokeColor=none;fillColor=none;align=left;verticalAlign=top;spacingLeft=4;spacingRight=4;overflow=hidden;rotatable=0;points=[[0,0.5],[1,0.5]];portConstraint=eastwest;fontColor=#143642;" parent="qp6mDoGpQSlHUPDBLB4e-152" vertex="1">
          <mxGeometry y="26" width="130" height="24" as="geometry" />
        </mxCell>
        <mxCell id="qp6mDoGpQSlHUPDBLB4e-154" value="" style="line;strokeWidth=1;fillColor=none;align=left;verticalAlign=middle;spacingTop=-1;spacingLeft=3;spacingRight=3;rotatable=0;labelPosition=right;points=[];portConstraint=eastwest;strokeColor=#0F8B8D;fontColor=#143642;labelBackgroundColor=#DAD2D8;" parent="qp6mDoGpQSlHUPDBLB4e-152" vertex="1">
          <mxGeometry y="50" width="130" height="8" as="geometry" />
        </mxCell>
        <mxCell id="qp6mDoGpQSlHUPDBLB4e-159" style="edgeStyle=orthogonalEdgeStyle;curved=0;rounded=1;sketch=0;orthogonalLoop=1;jettySize=auto;html=1;exitX=0;exitY=0.5;exitDx=0;exitDy=0;entryX=0.998;entryY=0.379;entryDx=0;entryDy=0;entryPerimeter=0;fontColor=#143642;endArrow=block;endFill=0;strokeColor=#A8201A;fillColor=#FAE5C7;labelBackgroundColor=#DAD2D8;" parent="1" source="qp6mDoGpQSlHUPDBLB4e-145" target="qp6mDoGpQSlHUPDBLB4e-61" edge="1">
          <mxGeometry relative="1" as="geometry" />
        </mxCell>
        <mxCell id="qp6mDoGpQSlHUPDBLB4e-171" style="edgeStyle=orthogonalEdgeStyle;rounded=0;sketch=0;orthogonalLoop=1;jettySize=auto;html=1;entryX=0.012;entryY=0.285;entryDx=0;entryDy=0;entryPerimeter=0;fontColor=#143642;endArrow=none;endFill=0;strokeColor=#A8201A;fillColor=#FAE5C7;labelBackgroundColor=#DAD2D8;" parent="1" source="qp6mDoGpQSlHUPDBLB4e-168" target="qp6mDoGpQSlHUPDBLB4e-50" edge="1">
          <mxGeometry relative="1" as="geometry" />
        </mxCell>
        <mxCell id="qp6mDoGpQSlHUPDBLB4e-168" value="Vecteurs" style="swimlane;fontStyle=1;align=center;verticalAlign=top;childLayout=stackLayout;horizontal=1;startSize=26;horizontalStack=0;resizeParent=1;resizeParentMax=0;resizeLast=0;collapsible=1;marginBottom=0;fillColor=#FAE5C7;strokeColor=#0F8B8D;fontColor=#143642;" parent="1" vertex="1">
          <mxGeometry x="-380" y="664" width="180" height="78" as="geometry" />
        </mxCell>
        <mxCell id="qp6mDoGpQSlHUPDBLB4e-169" value="+ localisation : geometry&#xa;+ densité&#xa;" style="text;strokeColor=none;fillColor=none;align=left;verticalAlign=top;spacingLeft=4;spacingRight=4;overflow=hidden;rotatable=0;points=[[0,0.5],[1,0.5]];portConstraint=eastwest;fontColor=#143642;" parent="qp6mDoGpQSlHUPDBLB4e-168" vertex="1">
          <mxGeometry y="26" width="180" height="44" as="geometry" />
        </mxCell>
        <mxCell id="qp6mDoGpQSlHUPDBLB4e-170" value="" style="line;strokeWidth=1;fillColor=none;align=left;verticalAlign=middle;spacingTop=-1;spacingLeft=3;spacingRight=3;rotatable=0;labelPosition=right;points=[];portConstraint=eastwest;strokeColor=#0F8B8D;fontColor=#143642;labelBackgroundColor=#DAD2D8;" parent="qp6mDoGpQSlHUPDBLB4e-168" vertex="1">
          <mxGeometry y="70" width="180" height="8" as="geometry" />
        </mxCell>
        <mxCell id="qp6mDoGpQSlHUPDBLB4e-172" value="Aedes" style="swimlane;fontStyle=1;align=center;verticalAlign=top;childLayout=stackLayout;horizontal=1;startSize=26;horizontalStack=0;resizeParent=1;resizeParentMax=0;resizeLast=0;collapsible=1;marginBottom=0;fillColor=#FAE5C7;strokeColor=#0F8B8D;fontColor=#143642;" parent="1" vertex="1">
          <mxGeometry x="-580" y="725" width="120" height="60" as="geometry" />
        </mxCell>
        <mxCell id="qp6mDoGpQSlHUPDBLB4e-173" value="+ espèce: char" style="text;strokeColor=none;fillColor=none;align=left;verticalAlign=top;spacingLeft=4;spacingRight=4;overflow=hidden;rotatable=0;points=[[0,0.5],[1,0.5]];portConstraint=eastwest;fontColor=#143642;" parent="qp6mDoGpQSlHUPDBLB4e-172" vertex="1">
          <mxGeometry y="26" width="120" height="24" as="geometry" />
        </mxCell>
        <mxCell id="qp6mDoGpQSlHUPDBLB4e-174" value="" style="line;strokeWidth=1;fillColor=none;align=left;verticalAlign=middle;spacingTop=-1;spacingLeft=3;spacingRight=3;rotatable=0;labelPosition=right;points=[];portConstraint=eastwest;labelBackgroundColor=#DAD2D8;strokeColor=#0F8B8D;fontColor=#143642;" parent="qp6mDoGpQSlHUPDBLB4e-172" vertex="1">
          <mxGeometry y="50" width="120" height="10" as="geometry" />
        </mxCell>
        <mxCell id="qp6mDoGpQSlHUPDBLB4e-175" style="edgeStyle=orthogonalEdgeStyle;rounded=0;sketch=0;orthogonalLoop=1;jettySize=auto;html=1;exitX=1;exitY=0.5;exitDx=0;exitDy=0;entryX=0;entryY=0.5;entryDx=0;entryDy=0;fontColor=#143642;strokeColor=#A8201A;fillColor=#FAE5C7;labelBackgroundColor=#DAD2D8;" parent="1" source="qp6mDoGpQSlHUPDBLB4e-173" target="qp6mDoGpQSlHUPDBLB4e-169" edge="1">
          <mxGeometry relative="1" as="geometry" />
        </mxCell>
        <mxCell id="qp6mDoGpQSlHUPDBLB4e-181" style="edgeStyle=orthogonalEdgeStyle;rounded=0;sketch=0;orthogonalLoop=1;jettySize=auto;html=1;exitX=1;exitY=0.5;exitDx=0;exitDy=0;entryX=0;entryY=0.5;entryDx=0;entryDy=0;fontColor=#143642;strokeColor=#A8201A;fillColor=#FAE5C7;endArrow=none;endFill=0;" parent="1" source="qp6mDoGpQSlHUPDBLB4e-39" target="qp6mDoGpQSlHUPDBLB4e-153" edge="1">
          <mxGeometry relative="1" as="geometry" />
        </mxCell>
        <mxCell id="qp6mDoGpQSlHUPDBLB4e-186" style="edgeStyle=orthogonalEdgeStyle;rounded=0;sketch=0;orthogonalLoop=1;jettySize=auto;html=1;exitX=0.5;exitY=0;exitDx=0;exitDy=0;entryX=0.5;entryY=1;entryDx=0;entryDy=0;fontColor=#143642;endArrow=open;endFill=0;strokeColor=#A8201A;fillColor=#FAE5C7;dashed=1;dashPattern=1 1;" parent="1" source="qp6mDoGpQSlHUPDBLB4e-182" target="qp6mDoGpQSlHUPDBLB4e-152" edge="1">
          <mxGeometry relative="1" as="geometry" />
        </mxCell>
        <mxCell id="qp6mDoGpQSlHUPDBLB4e-187" style="edgeStyle=orthogonalEdgeStyle;rounded=0;sketch=0;orthogonalLoop=1;jettySize=auto;html=1;exitX=0;exitY=0.5;exitDx=0;exitDy=0;entryX=1;entryY=0.5;entryDx=0;entryDy=0;fontColor=#143642;endArrow=none;endFill=0;strokeColor=#A8201A;fillColor=#FAE5C7;" parent="1" source="qp6mDoGpQSlHUPDBLB4e-182" target="qp6mDoGpQSlHUPDBLB4e-27" edge="1">
          <mxGeometry relative="1" as="geometry" />
        </mxCell>
        <mxCell id="qp6mDoGpQSlHUPDBLB4e-182" value="&lt;u&gt;Chercheur&lt;/u&gt;" style="html=1;fillColor=#FAE5C7;strokeColor=#0F8B8D;fontColor=#143642;" parent="1" vertex="1">
          <mxGeometry x="725" y="1400" width="135" height="50" as="geometry" />
        </mxCell>
        <mxCell id="qp6mDoGpQSlHUPDBLB4e-184" style="edgeStyle=orthogonalEdgeStyle;rounded=0;sketch=0;orthogonalLoop=1;jettySize=auto;html=1;exitX=1;exitY=0.5;exitDx=0;exitDy=0;entryX=0.5;entryY=0;entryDx=0;entryDy=0;fontColor=#143642;endArrow=none;endFill=0;strokeColor=#A8201A;fillColor=#FAE5C7;" parent="1" source="qp6mDoGpQSlHUPDBLB4e-7" target="qp6mDoGpQSlHUPDBLB4e-152" edge="1">
          <mxGeometry relative="1" as="geometry" />
        </mxCell>
        <mxCell id="qp6mDoGpQSlHUPDBLB4e-185" value="classifié par" style="edgeLabel;html=1;align=center;verticalAlign=middle;resizable=0;points=[];fontSize=11;fontFamily=Helvetica;fontColor=#143642;labelBackgroundColor=#DAD2D8;" parent="1" vertex="1" connectable="0">
          <mxGeometry x="795" y="640" as="geometry" />
        </mxCell>
        <mxCell id="Rlya1ZZkldOVwrBZuduB-1" value="Micro-climat&#xa;" style="swimlane;fontStyle=1;align=center;verticalAlign=top;childLayout=stackLayout;horizontal=1;startSize=26;horizontalStack=0;resizeParent=1;resizeParentMax=0;resizeLast=0;collapsible=1;marginBottom=0;fillColor=#FAE5C7;strokeColor=#0F8B8D;fontColor=#143642;" parent="1" vertex="1">
          <mxGeometry x="-380" y="1200" width="180" height="78" as="geometry" />
        </mxCell>
        <mxCell id="Rlya1ZZkldOVwrBZuduB-2" value="+" style="text;strokeColor=none;fillColor=none;align=left;verticalAlign=top;spacingLeft=4;spacingRight=4;overflow=hidden;rotatable=0;points=[[0,0.5],[1,0.5]];portConstraint=eastwest;fontColor=#143642;" parent="Rlya1ZZkldOVwrBZuduB-1" vertex="1">
          <mxGeometry y="26" width="180" height="44" as="geometry" />
        </mxCell>
        <mxCell id="Rlya1ZZkldOVwrBZuduB-3" value="" style="line;strokeWidth=1;fillColor=none;align=left;verticalAlign=middle;spacingTop=-1;spacingLeft=3;spacingRight=3;rotatable=0;labelPosition=right;points=[];portConstraint=eastwest;strokeColor=#0F8B8D;fontColor=#143642;labelBackgroundColor=#DAD2D8;" parent="Rlya1ZZkldOVwrBZuduB-1" vertex="1">
          <mxGeometry y="70" width="180" height="8" as="geometry" />
        </mxCell>
        <mxCell id="Rlya1ZZkldOVwrBZuduB-4" value="Ensoleillement" style="swimlane;fontStyle=1;align=center;verticalAlign=top;childLayout=stackLayout;horizontal=1;startSize=26;horizontalStack=0;resizeParent=1;resizeParentMax=0;resizeLast=0;collapsible=1;marginBottom=0;fillColor=#FAE5C7;strokeColor=#0F8B8D;fontColor=#143642;" parent="1" vertex="1">
          <mxGeometry x="-660" y="1180" width="180" height="78" as="geometry" />
        </mxCell>
        <mxCell id="Rlya1ZZkldOVwrBZuduB-5" value="+" style="text;strokeColor=none;fillColor=none;align=left;verticalAlign=top;spacingLeft=4;spacingRight=4;overflow=hidden;rotatable=0;points=[[0,0.5],[1,0.5]];portConstraint=eastwest;fontColor=#143642;" parent="Rlya1ZZkldOVwrBZuduB-4" vertex="1">
          <mxGeometry y="26" width="180" height="44" as="geometry" />
        </mxCell>
        <mxCell id="Rlya1ZZkldOVwrBZuduB-6" value="" style="line;strokeWidth=1;fillColor=none;align=left;verticalAlign=middle;spacingTop=-1;spacingLeft=3;spacingRight=3;rotatable=0;labelPosition=right;points=[];portConstraint=eastwest;strokeColor=#0F8B8D;fontColor=#143642;labelBackgroundColor=#DAD2D8;" parent="Rlya1ZZkldOVwrBZuduB-4" vertex="1">
          <mxGeometry y="70" width="180" height="8" as="geometry" />
        </mxCell>
        <mxCell id="Rlya1ZZkldOVwrBZuduB-7" value="Paramètre météorologique" style="swimlane;fontStyle=1;align=center;verticalAlign=top;childLayout=stackLayout;horizontal=1;startSize=26;horizontalStack=0;resizeParent=1;resizeParentMax=0;resizeLast=0;collapsible=1;marginBottom=0;fillColor=#FAE5C7;strokeColor=#0F8B8D;fontColor=#143642;" parent="1" vertex="1">
          <mxGeometry x="-870" y="1058" width="180" height="70" as="geometry" />
        </mxCell>
        <mxCell id="Rlya1ZZkldOVwrBZuduB-8" value="+" style="text;strokeColor=none;fillColor=none;align=left;verticalAlign=top;spacingLeft=4;spacingRight=4;overflow=hidden;rotatable=0;points=[[0,0.5],[1,0.5]];portConstraint=eastwest;fontColor=#143642;" parent="Rlya1ZZkldOVwrBZuduB-7" vertex="1">
          <mxGeometry y="26" width="180" height="34" as="geometry" />
        </mxCell>
        <mxCell id="Rlya1ZZkldOVwrBZuduB-9" value="" style="line;strokeWidth=1;fillColor=none;align=left;verticalAlign=middle;spacingTop=-1;spacingLeft=3;spacingRight=3;rotatable=0;labelPosition=right;points=[];portConstraint=eastwest;strokeColor=#0F8B8D;fontColor=#143642;labelBackgroundColor=#DAD2D8;" parent="Rlya1ZZkldOVwrBZuduB-7" vertex="1">
          <mxGeometry y="60" width="180" height="10" as="geometry" />
        </mxCell>
        <mxCell id="Rlya1ZZkldOVwrBZuduB-10" value="Micro climat" style="swimlane;fontStyle=1;align=center;verticalAlign=top;childLayout=stackLayout;horizontal=1;startSize=26;horizontalStack=0;resizeParent=1;resizeParentMax=0;resizeLast=0;collapsible=1;marginBottom=0;fillColor=#FAE5C7;strokeColor=#0F8B8D;fontColor=#143642;" parent="1" vertex="1">
          <mxGeometry x="-90" y="1180" width="180" height="70" as="geometry" />
        </mxCell>
        <mxCell id="Rlya1ZZkldOVwrBZuduB-11" value="+" style="text;strokeColor=none;fillColor=none;align=left;verticalAlign=top;spacingLeft=4;spacingRight=4;overflow=hidden;rotatable=0;points=[[0,0.5],[1,0.5]];portConstraint=eastwest;fontColor=#143642;" parent="Rlya1ZZkldOVwrBZuduB-10" vertex="1">
          <mxGeometry y="26" width="180" height="34" as="geometry" />
        </mxCell>
        <mxCell id="Rlya1ZZkldOVwrBZuduB-12" value="" style="line;strokeWidth=1;fillColor=none;align=left;verticalAlign=middle;spacingTop=-1;spacingLeft=3;spacingRight=3;rotatable=0;labelPosition=right;points=[];portConstraint=eastwest;strokeColor=#0F8B8D;fontColor=#143642;labelBackgroundColor=#DAD2D8;" parent="Rlya1ZZkldOVwrBZuduB-10" vertex="1">
          <mxGeometry y="60" width="180" height="10" as="geometry" />
        </mxCell>
        <mxCell id="YMydpdAGPkdJX_1f-UrJ-1" value="Exposition" style="swimlane;fontStyle=1;align=center;verticalAlign=top;childLayout=stackLayout;horizontal=1;startSize=26;horizontalStack=0;resizeParent=1;resizeParentMax=0;resizeLast=0;collapsible=1;marginBottom=0;fillColor=#FAE5C7;strokeColor=#0F8B8D;fontColor=#143642;rounded=1;fontSize=16;" vertex="1" parent="1">
          <mxGeometry x="460" y="-850" width="160" height="60" as="geometry">
            <mxRectangle x="600" y="310" width="90" height="26" as="alternateBounds" />
          </mxGeometry>
        </mxCell>
        <mxCell id="YMydpdAGPkdJX_1f-UrJ-2" value="+ niveau: real" style="text;strokeColor=none;fillColor=none;align=left;verticalAlign=top;spacingLeft=4;spacingRight=4;overflow=hidden;rotatable=0;points=[[0,0.5],[1,0.5]];portConstraint=eastwest;fontColor=#143642;rounded=1;fontSize=16;" vertex="1" parent="YMydpdAGPkdJX_1f-UrJ-1">
          <mxGeometry y="26" width="160" height="26" as="geometry" />
        </mxCell>
        <mxCell id="YMydpdAGPkdJX_1f-UrJ-3" value="" style="line;strokeWidth=1;fillColor=none;align=left;verticalAlign=middle;spacingTop=-1;spacingLeft=3;spacingRight=3;rotatable=0;labelPosition=right;points=[];portConstraint=eastwest;strokeColor=#0F8B8D;fontColor=#143642;labelBackgroundColor=#DAD2D8;rounded=1;fontSize=16;" vertex="1" parent="YMydpdAGPkdJX_1f-UrJ-1">
          <mxGeometry y="52" width="160" height="8" as="geometry" />
        </mxCell>
        <mxCell id="YMydpdAGPkdJX_1f-UrJ-4" style="edgeStyle=orthogonalEdgeStyle;shape=connector;orthogonalLoop=1;jettySize=auto;html=1;entryX=0.5;entryY=0;entryDx=0;entryDy=0;fontFamily=Helvetica;fontSize=16;fontColor=#143642;endArrow=none;endFill=0;strokeColor=#A8201A;exitX=0.75;exitY=1;exitDx=0;exitDy=0;labelBackgroundColor=#DAD2D8;rounded=1;" edge="1" parent="1" source="YMydpdAGPkdJX_1f-UrJ-6" target="YMydpdAGPkdJX_1f-UrJ-20">
          <mxGeometry relative="1" as="geometry" />
        </mxCell>
        <mxCell id="YMydpdAGPkdJX_1f-UrJ-5" value="classifié par" style="edgeLabel;html=1;align=center;verticalAlign=middle;resizable=0;points=[];fontSize=16;fontFamily=Helvetica;fontColor=#143642;labelBackgroundColor=#DAD2D8;rounded=1;" vertex="1" connectable="0" parent="YMydpdAGPkdJX_1f-UrJ-4">
          <mxGeometry x="0.2345" relative="1" as="geometry">
            <mxPoint as="offset" />
          </mxGeometry>
        </mxCell>
        <mxCell id="YMydpdAGPkdJX_1f-UrJ-6" value="Enjeu" style="swimlane;fontStyle=1;align=center;verticalAlign=top;childLayout=stackLayout;horizontal=1;startSize=26;horizontalStack=0;resizeParent=1;resizeParentMax=0;resizeLast=0;collapsible=1;marginBottom=0;fillColor=#FAE5C7;strokeColor=#0F8B8D;fontColor=#143642;rounded=1;fontSize=16;" vertex="1" parent="1">
          <mxGeometry x="827.5" y="-1040" width="160" height="60" as="geometry" />
        </mxCell>
        <mxCell id="YMydpdAGPkdJX_1f-UrJ-7" value="+ vulnérabilité: real" style="text;strokeColor=none;fillColor=none;align=left;verticalAlign=top;spacingLeft=4;spacingRight=4;overflow=hidden;rotatable=0;points=[[0,0.5],[1,0.5]];portConstraint=eastwest;fontColor=#143642;rounded=1;fontSize=16;" vertex="1" parent="YMydpdAGPkdJX_1f-UrJ-6">
          <mxGeometry y="26" width="160" height="26" as="geometry" />
        </mxCell>
        <mxCell id="YMydpdAGPkdJX_1f-UrJ-8" value="" style="line;strokeWidth=1;fillColor=none;align=left;verticalAlign=middle;spacingTop=-1;spacingLeft=3;spacingRight=3;rotatable=0;labelPosition=right;points=[];portConstraint=eastwest;strokeColor=#0F8B8D;fontColor=#143642;labelBackgroundColor=#DAD2D8;rounded=1;fontSize=16;" vertex="1" parent="YMydpdAGPkdJX_1f-UrJ-6">
          <mxGeometry y="52" width="160" height="8" as="geometry" />
        </mxCell>
        <mxCell id="YMydpdAGPkdJX_1f-UrJ-9" value="Aléa" style="swimlane;fontStyle=1;align=center;verticalAlign=top;childLayout=stackLayout;horizontal=1;startSize=26;horizontalStack=0;resizeParent=1;resizeParentMax=0;resizeLast=0;collapsible=1;marginBottom=0;fillColor=#FAE5C7;strokeColor=#0F8B8D;fontColor=#143642;rounded=1;fontSize=16;" vertex="1" parent="1">
          <mxGeometry x="100" y="-1049" width="160" height="78" as="geometry" />
        </mxCell>
        <mxCell id="YMydpdAGPkdJX_1f-UrJ-10" value="+ intensité: type intensité&#xa;+ probabilité" style="text;strokeColor=none;fillColor=none;align=left;verticalAlign=top;spacingLeft=4;spacingRight=4;overflow=hidden;rotatable=0;points=[[0,0.5],[1,0.5]];portConstraint=eastwest;fontColor=#143642;rounded=1;fontSize=16;" vertex="1" parent="YMydpdAGPkdJX_1f-UrJ-9">
          <mxGeometry y="26" width="160" height="44" as="geometry" />
        </mxCell>
        <mxCell id="YMydpdAGPkdJX_1f-UrJ-11" value="" style="line;strokeWidth=1;fillColor=none;align=left;verticalAlign=middle;spacingTop=-1;spacingLeft=3;spacingRight=3;rotatable=0;labelPosition=right;points=[];portConstraint=eastwest;strokeColor=#0F8B8D;fontColor=#143642;labelBackgroundColor=#DAD2D8;rounded=1;fontSize=16;" vertex="1" parent="YMydpdAGPkdJX_1f-UrJ-9">
          <mxGeometry y="70" width="160" height="8" as="geometry" />
        </mxCell>
        <mxCell id="YMydpdAGPkdJX_1f-UrJ-12" style="edgeStyle=orthogonalEdgeStyle;orthogonalLoop=1;jettySize=auto;html=1;exitX=0.5;exitY=0;exitDx=0;exitDy=0;endArrow=none;endFill=0;dashed=1;entryX=0.5;entryY=1;entryDx=0;entryDy=0;strokeColor=#A8201A;fontColor=#143642;labelBackgroundColor=#DAD2D8;rounded=1;fontSize=16;" edge="1" parent="1" source="YMydpdAGPkdJX_1f-UrJ-14" target="YMydpdAGPkdJX_1f-UrJ-17">
          <mxGeometry relative="1" as="geometry">
            <mxPoint x="540" y="-990" as="targetPoint" />
            <Array as="points">
              <mxPoint x="540" y="-950" />
              <mxPoint x="540" y="-950" />
            </Array>
          </mxGeometry>
        </mxCell>
        <mxCell id="YMydpdAGPkdJX_1f-UrJ-13" style="edgeStyle=elbowEdgeStyle;orthogonalLoop=1;jettySize=auto;html=1;exitX=1;exitY=0.5;exitDx=0;exitDy=0;endArrow=none;endFill=0;strokeColor=#A8201A;fontColor=#143642;labelBackgroundColor=#DAD2D8;rounded=1;fontSize=16;" edge="1" parent="1" source="YMydpdAGPkdJX_1f-UrJ-14" target="YMydpdAGPkdJX_1f-UrJ-7">
          <mxGeometry relative="1" as="geometry">
            <mxPoint x="690" y="-955" as="targetPoint" />
            <Array as="points">
              <mxPoint x="660" y="-900" />
            </Array>
          </mxGeometry>
        </mxCell>
        <mxCell id="YMydpdAGPkdJX_1f-UrJ-14" value="" style="rhombus;aspect=fixed;fillColor=#FAE5C7;strokeColor=#0F8B8D;fontColor=#143642;rounded=1;fontSize=16;" vertex="1" parent="1">
          <mxGeometry x="530" y="-910" width="20" height="20" as="geometry" />
        </mxCell>
        <mxCell id="YMydpdAGPkdJX_1f-UrJ-15" value="" style="endArrow=none;html=1;align=center;verticalAlign=bottom;labelBackgroundColor=none;edgeStyle=elbowEdgeStyle;strokeColor=#A8201A;fontColor=#143642;rounded=1;fontSize=16;" edge="1" parent="1" source="YMydpdAGPkdJX_1f-UrJ-10" target="YMydpdAGPkdJX_1f-UrJ-14">
          <mxGeometry relative="1" as="geometry">
            <mxPoint x="340" y="-900" as="sourcePoint" />
            <Array as="points">
              <mxPoint x="410" y="-900" />
              <mxPoint x="430" y="-900" />
            </Array>
          </mxGeometry>
        </mxCell>
        <mxCell id="YMydpdAGPkdJX_1f-UrJ-16" value="" style="endArrow=none;html=1;align=center;verticalAlign=bottom;labelBackgroundColor=none;entryX=0.5;entryY=0;entryDx=0;entryDy=0;edgeStyle=elbowEdgeStyle;elbow=vertical;strokeColor=#A8201A;fontColor=#143642;rounded=1;fontSize=16;" edge="1" parent="1" source="YMydpdAGPkdJX_1f-UrJ-14" target="YMydpdAGPkdJX_1f-UrJ-1">
          <mxGeometry relative="1" as="geometry">
            <mxPoint x="610" y="-900" as="targetPoint" />
          </mxGeometry>
        </mxCell>
        <mxCell id="YMydpdAGPkdJX_1f-UrJ-17" value="Risque" style="swimlane;fontStyle=1;align=center;verticalAlign=top;childLayout=stackLayout;horizontal=1;startSize=26;horizontalStack=0;resizeParent=1;resizeParentMax=0;resizeLast=0;collapsible=1;marginBottom=0;fillColor=#FAE5C7;strokeColor=#0F8B8D;fontColor=#143642;rounded=1;fontSize=14;" vertex="1" parent="1">
          <mxGeometry x="270" y="-1220" width="520" height="60" as="geometry" />
        </mxCell>
        <mxCell id="YMydpdAGPkdJX_1f-UrJ-18" value="+ probabilité, éventualité d&#39;occurrence de l&#39;évén. dommageable: real" style="text;strokeColor=none;fillColor=none;align=left;verticalAlign=top;spacingLeft=4;spacingRight=4;overflow=hidden;rotatable=0;points=[[0,0.5],[1,0.5]];portConstraint=eastwest;fontColor=#143642;rounded=1;fontSize=16;" vertex="1" parent="YMydpdAGPkdJX_1f-UrJ-17">
          <mxGeometry y="26" width="520" height="26" as="geometry" />
        </mxCell>
        <mxCell id="YMydpdAGPkdJX_1f-UrJ-19" value="" style="line;strokeWidth=1;fillColor=none;align=left;verticalAlign=middle;spacingTop=-1;spacingLeft=3;spacingRight=3;rotatable=0;labelPosition=right;points=[];portConstraint=eastwest;strokeColor=#0F8B8D;fontColor=#143642;labelBackgroundColor=#DAD2D8;rounded=1;fontSize=16;" vertex="1" parent="YMydpdAGPkdJX_1f-UrJ-17">
          <mxGeometry y="52" width="520" height="8" as="geometry" />
        </mxCell>
        <mxCell id="YMydpdAGPkdJX_1f-UrJ-20" value="Type enjeu" style="swimlane;fontStyle=1;align=center;verticalAlign=top;childLayout=stackLayout;horizontal=1;startSize=26;horizontalStack=0;resizeParent=1;resizeParentMax=0;resizeLast=0;collapsible=1;marginBottom=0;fillColor=#FAE5C7;strokeColor=#0F8B8D;fontColor=#143642;rounded=1;fontSize=16;" vertex="1" parent="1">
          <mxGeometry x="817.5" y="-864.5" width="180" height="56" as="geometry" />
        </mxCell>
        <mxCell id="YMydpdAGPkdJX_1f-UrJ-21" value="+ label: char (pop ou indiv)" style="text;strokeColor=none;fillColor=none;align=left;verticalAlign=top;spacingLeft=4;spacingRight=4;overflow=hidden;rotatable=0;points=[[0,0.5],[1,0.5]];portConstraint=eastwest;fontColor=#143642;rounded=1;fontSize=16;" vertex="1" parent="YMydpdAGPkdJX_1f-UrJ-20">
          <mxGeometry y="26" width="180" height="22" as="geometry" />
        </mxCell>
        <mxCell id="YMydpdAGPkdJX_1f-UrJ-22" value="" style="line;strokeWidth=1;fillColor=none;align=left;verticalAlign=middle;spacingTop=-1;spacingLeft=3;spacingRight=3;rotatable=0;labelPosition=right;points=[];portConstraint=eastwest;strokeColor=#0F8B8D;fontColor=#143642;labelBackgroundColor=#DAD2D8;rounded=1;fontSize=16;" vertex="1" parent="YMydpdAGPkdJX_1f-UrJ-20">
          <mxGeometry y="48" width="180" height="8" as="geometry" />
        </mxCell>
        <mxCell id="YMydpdAGPkdJX_1f-UrJ-23" value="1" style="text;html=1;align=center;verticalAlign=middle;resizable=0;points=[];autosize=1;strokeColor=none;fillColor=none;fontSize=16;fontFamily=Helvetica;fontColor=#143642;rounded=1;" vertex="1" parent="1">
          <mxGeometry x="920" y="-980" width="20" height="20" as="geometry" />
        </mxCell>
        <mxCell id="YMydpdAGPkdJX_1f-UrJ-24" value="*" style="text;html=1;align=center;verticalAlign=middle;resizable=0;points=[];autosize=1;strokeColor=none;fillColor=none;fontSize=16;fontFamily=Helvetica;fontColor=#143642;rounded=1;" vertex="1" parent="1">
          <mxGeometry x="807.5" y="-910" width="20" height="20" as="geometry" />
        </mxCell>
        <mxCell id="YMydpdAGPkdJX_1f-UrJ-25" style="edgeStyle=orthogonalEdgeStyle;rounded=1;orthogonalLoop=1;jettySize=auto;html=1;exitX=0.5;exitY=0;exitDx=0;exitDy=0;entryX=0.563;entryY=1.125;entryDx=0;entryDy=0;entryPerimeter=0;fontSize=16;fontColor=#143642;endArrow=none;endFill=0;strokeColor=#A8201A;fillColor=#FAE5C7;" edge="1" parent="1" source="YMydpdAGPkdJX_1f-UrJ-26" target="YMydpdAGPkdJX_1f-UrJ-11">
          <mxGeometry relative="1" as="geometry" />
        </mxCell>
        <mxCell id="YMydpdAGPkdJX_1f-UrJ-26" value="Occurence de vecteurs" style="swimlane;fontStyle=1;align=center;verticalAlign=top;childLayout=stackLayout;horizontal=1;startSize=26;horizontalStack=0;resizeParent=1;resizeParentMax=0;resizeLast=0;collapsible=1;marginBottom=0;fillColor=#FAE5C7;strokeColor=#0F8B8D;fontColor=#143642;rounded=1;fontSize=16;" vertex="1" parent="1">
          <mxGeometry x="119" y="-743.5" width="170" height="78" as="geometry" />
        </mxCell>
        <mxCell id="YMydpdAGPkdJX_1f-UrJ-27" value="+ présence&#xa;+ abondance&#xa;&#xa;" style="text;strokeColor=none;fillColor=none;align=left;verticalAlign=top;spacingLeft=4;spacingRight=4;overflow=hidden;rotatable=0;points=[[0,0.5],[1,0.5]];portConstraint=eastwest;fontColor=#143642;rounded=1;fontSize=16;" vertex="1" parent="YMydpdAGPkdJX_1f-UrJ-26">
          <mxGeometry y="26" width="170" height="44" as="geometry" />
        </mxCell>
        <mxCell id="YMydpdAGPkdJX_1f-UrJ-28" value="" style="line;strokeWidth=1;fillColor=none;align=left;verticalAlign=middle;spacingTop=-1;spacingLeft=3;spacingRight=3;rotatable=0;labelPosition=right;points=[];portConstraint=eastwest;strokeColor=#0F8B8D;fontColor=#143642;labelBackgroundColor=#DAD2D8;rounded=1;fontSize=16;" vertex="1" parent="YMydpdAGPkdJX_1f-UrJ-26">
          <mxGeometry y="70" width="170" height="8" as="geometry" />
        </mxCell>
        <mxCell id="YMydpdAGPkdJX_1f-UrJ-29" style="edgeStyle=orthogonalEdgeStyle;rounded=1;orthogonalLoop=1;jettySize=auto;html=1;exitX=0.5;exitY=0;exitDx=0;exitDy=0;entryX=-0.01;entryY=0.086;entryDx=0;entryDy=0;entryPerimeter=0;fontSize=16;fontColor=#143642;endArrow=none;endFill=0;strokeColor=#A8201A;fillColor=#FAE5C7;" edge="1" parent="1" source="YMydpdAGPkdJX_1f-UrJ-30" target="YMydpdAGPkdJX_1f-UrJ-10">
          <mxGeometry relative="1" as="geometry" />
        </mxCell>
        <mxCell id="YMydpdAGPkdJX_1f-UrJ-30" value="Piqure(s)" style="swimlane;fontStyle=1;align=center;verticalAlign=top;childLayout=stackLayout;horizontal=1;startSize=26;horizontalStack=0;resizeParent=1;resizeParentMax=0;resizeLast=0;collapsible=1;marginBottom=0;fillColor=#FAE5C7;strokeColor=#0F8B8D;fontColor=#143642;rounded=1;fontSize=16;" vertex="1" parent="1">
          <mxGeometry x="-46" y="-939" width="150" height="78" as="geometry" />
        </mxCell>
        <mxCell id="YMydpdAGPkdJX_1f-UrJ-31" value="+ " style="text;strokeColor=none;fillColor=none;align=left;verticalAlign=top;spacingLeft=4;spacingRight=4;overflow=hidden;rotatable=0;points=[[0,0.5],[1,0.5]];portConstraint=eastwest;fontColor=#143642;rounded=1;fontSize=16;" vertex="1" parent="YMydpdAGPkdJX_1f-UrJ-30">
          <mxGeometry y="26" width="150" height="44" as="geometry" />
        </mxCell>
        <mxCell id="YMydpdAGPkdJX_1f-UrJ-32" value="" style="line;strokeWidth=1;fillColor=none;align=left;verticalAlign=middle;spacingTop=-1;spacingLeft=3;spacingRight=3;rotatable=0;labelPosition=right;points=[];portConstraint=eastwest;strokeColor=#0F8B8D;fontColor=#143642;labelBackgroundColor=#DAD2D8;rounded=1;fontSize=16;" vertex="1" parent="YMydpdAGPkdJX_1f-UrJ-30">
          <mxGeometry y="70" width="150" height="8" as="geometry" />
        </mxCell>
        <mxCell id="YMydpdAGPkdJX_1f-UrJ-33" value="Piqure(s) infectante(s)" style="swimlane;fontStyle=1;align=center;verticalAlign=top;childLayout=stackLayout;horizontal=1;startSize=26;horizontalStack=0;resizeParent=1;resizeParentMax=0;resizeLast=0;collapsible=1;marginBottom=0;fillColor=#FAE5C7;strokeColor=#0F8B8D;fontColor=#143642;rounded=1;fontSize=16;" vertex="1" parent="1">
          <mxGeometry x="-264" y="-1080" width="200" height="68" as="geometry">
            <mxRectangle x="-430" y="200" width="180" height="26" as="alternateBounds" />
          </mxGeometry>
        </mxCell>
        <mxCell id="YMydpdAGPkdJX_1f-UrJ-34" value="+" style="text;strokeColor=none;fillColor=none;align=left;verticalAlign=top;spacingLeft=4;spacingRight=4;overflow=hidden;rotatable=0;points=[[0,0.5],[1,0.5]];portConstraint=eastwest;fontColor=#143642;rounded=1;fontSize=16;" vertex="1" parent="YMydpdAGPkdJX_1f-UrJ-33">
          <mxGeometry y="26" width="200" height="34" as="geometry" />
        </mxCell>
        <mxCell id="YMydpdAGPkdJX_1f-UrJ-35" value="" style="line;strokeWidth=1;fillColor=none;align=left;verticalAlign=middle;spacingTop=-1;spacingLeft=3;spacingRight=3;rotatable=0;labelPosition=right;points=[];portConstraint=eastwest;strokeColor=#0F8B8D;fontColor=#143642;labelBackgroundColor=#DAD2D8;rounded=1;fontSize=16;" vertex="1" parent="YMydpdAGPkdJX_1f-UrJ-33">
          <mxGeometry y="60" width="200" height="8" as="geometry" />
        </mxCell>
        <mxCell id="YMydpdAGPkdJX_1f-UrJ-36" style="edgeStyle=orthogonalEdgeStyle;rounded=1;orthogonalLoop=1;jettySize=auto;html=1;exitX=0.5;exitY=0;exitDx=0;exitDy=0;entryX=0.5;entryY=1;entryDx=0;entryDy=0;fontSize=16;fontColor=#143642;strokeColor=#A8201A;fillColor=#FAE5C7;endArrow=none;endFill=0;" edge="1" parent="1" source="YMydpdAGPkdJX_1f-UrJ-37" target="YMydpdAGPkdJX_1f-UrJ-26">
          <mxGeometry relative="1" as="geometry" />
        </mxCell>
        <mxCell id="YMydpdAGPkdJX_1f-UrJ-37" value="Présence de gîtes larvaires" style="swimlane;fontStyle=1;align=center;verticalAlign=top;childLayout=stackLayout;horizontal=1;startSize=26;horizontalStack=0;resizeParent=1;resizeParentMax=0;resizeLast=0;collapsible=1;marginBottom=0;fillColor=#FAE5C7;strokeColor=#0F8B8D;fontColor=#143642;rounded=1;fontSize=16;" vertex="1" parent="1">
          <mxGeometry x="89" y="-627.5" width="230" height="110" as="geometry" />
        </mxCell>
        <mxCell id="YMydpdAGPkdJX_1f-UrJ-38" value="+ localisation : geometry&#xa;+ densité&#xa;+ productivité&#xa;" style="text;strokeColor=none;fillColor=none;align=left;verticalAlign=top;spacingLeft=4;spacingRight=4;overflow=hidden;rotatable=0;points=[[0,0.5],[1,0.5]];portConstraint=eastwest;fontColor=#143642;rounded=1;fontSize=16;" vertex="1" parent="YMydpdAGPkdJX_1f-UrJ-37">
          <mxGeometry y="26" width="230" height="64" as="geometry" />
        </mxCell>
        <mxCell id="YMydpdAGPkdJX_1f-UrJ-39" value="" style="line;strokeWidth=1;fillColor=none;align=left;verticalAlign=middle;spacingTop=-1;spacingLeft=3;spacingRight=3;rotatable=0;labelPosition=right;points=[];portConstraint=eastwest;strokeColor=#0F8B8D;fontColor=#143642;labelBackgroundColor=#DAD2D8;rounded=1;fontSize=16;" vertex="1" parent="YMydpdAGPkdJX_1f-UrJ-37">
          <mxGeometry y="90" width="230" height="20" as="geometry" />
        </mxCell>
        <mxCell id="YMydpdAGPkdJX_1f-UrJ-40" style="edgeStyle=orthogonalEdgeStyle;orthogonalLoop=1;jettySize=auto;html=1;exitX=0.5;exitY=0;exitDx=0;exitDy=0;fontColor=#143642;endArrow=none;endFill=0;strokeColor=#A8201A;fillColor=#FAE5C7;labelBackgroundColor=#DAD2D8;rounded=1;fontSize=16;" edge="1" parent="1" source="YMydpdAGPkdJX_1f-UrJ-42">
          <mxGeometry relative="1" as="geometry">
            <mxPoint x="180" y="-520" as="targetPoint" />
            <Array as="points">
              <mxPoint x="10" y="-472" />
              <mxPoint x="180" y="-472" />
            </Array>
          </mxGeometry>
        </mxCell>
        <mxCell id="YMydpdAGPkdJX_1f-UrJ-41" style="edgeStyle=orthogonalEdgeStyle;rounded=1;orthogonalLoop=1;jettySize=auto;html=1;exitX=0.75;exitY=1;exitDx=0;exitDy=0;entryX=0;entryY=0.5;entryDx=0;entryDy=0;fontSize=16;fontColor=#143642;endArrow=diamondThin;endFill=1;endSize=10;strokeColor=#A8201A;fillColor=#FAE5C7;" edge="1" parent="1" source="YMydpdAGPkdJX_1f-UrJ-42" target="YMydpdAGPkdJX_1f-UrJ-74">
          <mxGeometry relative="1" as="geometry" />
        </mxCell>
        <mxCell id="YMydpdAGPkdJX_1f-UrJ-42" value="Occupation du sol" style="swimlane;fontStyle=1;align=center;verticalAlign=top;childLayout=stackLayout;horizontal=1;startSize=26;horizontalStack=0;resizeParent=1;resizeParentMax=0;resizeLast=0;collapsible=1;marginBottom=0;fillColor=#FAE5C7;strokeColor=#0F8B8D;fontColor=#143642;rounded=1;fontSize=16;" vertex="1" parent="1">
          <mxGeometry x="-80" y="-451.5" width="180" height="78" as="geometry" />
        </mxCell>
        <mxCell id="YMydpdAGPkdJX_1f-UrJ-43" value="+" style="text;strokeColor=none;fillColor=none;align=left;verticalAlign=top;spacingLeft=4;spacingRight=4;overflow=hidden;rotatable=0;points=[[0,0.5],[1,0.5]];portConstraint=eastwest;fontColor=#143642;rounded=1;fontSize=16;" vertex="1" parent="YMydpdAGPkdJX_1f-UrJ-42">
          <mxGeometry y="26" width="180" height="44" as="geometry" />
        </mxCell>
        <mxCell id="YMydpdAGPkdJX_1f-UrJ-44" value="" style="line;strokeWidth=1;fillColor=none;align=left;verticalAlign=middle;spacingTop=-1;spacingLeft=3;spacingRight=3;rotatable=0;labelPosition=right;points=[];portConstraint=eastwest;strokeColor=#0F8B8D;fontColor=#143642;labelBackgroundColor=#DAD2D8;rounded=1;fontSize=16;" vertex="1" parent="YMydpdAGPkdJX_1f-UrJ-42">
          <mxGeometry y="70" width="180" height="8" as="geometry" />
        </mxCell>
        <mxCell id="YMydpdAGPkdJX_1f-UrJ-45" style="edgeStyle=orthogonalEdgeStyle;orthogonalLoop=1;jettySize=auto;html=1;exitX=0.5;exitY=0;exitDx=0;exitDy=0;entryX=0;entryY=0.5;entryDx=0;entryDy=0;fontColor=#143642;endArrow=none;endFill=0;strokeColor=#A8201A;fillColor=#FAE5C7;labelBackgroundColor=#DAD2D8;rounded=1;fontSize=16;" edge="1" parent="1" source="YMydpdAGPkdJX_1f-UrJ-47" target="YMydpdAGPkdJX_1f-UrJ-43">
          <mxGeometry relative="1" as="geometry" />
        </mxCell>
        <mxCell id="YMydpdAGPkdJX_1f-UrJ-46" style="edgeStyle=orthogonalEdgeStyle;orthogonalLoop=1;jettySize=auto;html=1;exitX=0.5;exitY=0;exitDx=0;exitDy=0;entryX=0.5;entryY=1;entryDx=0;entryDy=0;fontColor=#143642;strokeColor=#A8201A;fillColor=#FAE5C7;labelBackgroundColor=#DAD2D8;endArrow=none;endFill=0;rounded=1;fontSize=16;" edge="1" parent="1" source="YMydpdAGPkdJX_1f-UrJ-47" target="YMydpdAGPkdJX_1f-UrJ-64">
          <mxGeometry relative="1" as="geometry" />
        </mxCell>
        <mxCell id="YMydpdAGPkdJX_1f-UrJ-47" value="Facteurs météorologique" style="swimlane;fontStyle=1;align=center;verticalAlign=top;childLayout=stackLayout;horizontal=1;startSize=26;horizontalStack=0;resizeParent=1;resizeParentMax=0;resizeLast=0;collapsible=1;marginBottom=0;fillColor=#FAE5C7;strokeColor=#0F8B8D;fontColor=#143642;rounded=1;fontSize=16;" vertex="1" parent="1">
          <mxGeometry x="-400" y="-314" width="210" height="78" as="geometry" />
        </mxCell>
        <mxCell id="YMydpdAGPkdJX_1f-UrJ-48" value="+" style="text;strokeColor=none;fillColor=none;align=left;verticalAlign=top;spacingLeft=4;spacingRight=4;overflow=hidden;rotatable=0;points=[[0,0.5],[1,0.5]];portConstraint=eastwest;fontColor=#143642;rounded=1;fontSize=16;" vertex="1" parent="YMydpdAGPkdJX_1f-UrJ-47">
          <mxGeometry y="26" width="210" height="44" as="geometry" />
        </mxCell>
        <mxCell id="YMydpdAGPkdJX_1f-UrJ-49" value="" style="line;strokeWidth=1;fillColor=none;align=left;verticalAlign=middle;spacingTop=-1;spacingLeft=3;spacingRight=3;rotatable=0;labelPosition=right;points=[];portConstraint=eastwest;strokeColor=#0F8B8D;fontColor=#143642;labelBackgroundColor=#DAD2D8;rounded=1;fontSize=16;" vertex="1" parent="YMydpdAGPkdJX_1f-UrJ-47">
          <mxGeometry y="70" width="210" height="8" as="geometry" />
        </mxCell>
        <mxCell id="YMydpdAGPkdJX_1f-UrJ-50" value="Contribue" style="text;html=1;strokeColor=none;fillColor=none;align=center;verticalAlign=middle;whiteSpace=wrap;fontColor=#143642;rounded=1;fontSize=16;" vertex="1" parent="1">
          <mxGeometry x="-215" y="-403.5" width="60" height="30" as="geometry" />
        </mxCell>
        <mxCell id="YMydpdAGPkdJX_1f-UrJ-51" style="edgeStyle=orthogonalEdgeStyle;orthogonalLoop=1;jettySize=auto;html=1;exitX=0.5;exitY=0;exitDx=0;exitDy=0;endArrow=block;endFill=0;labelBackgroundColor=#DAD2D8;strokeColor=#A8201A;fontColor=#143642;rounded=1;fontSize=16;endSize=10;" edge="1" parent="1" source="YMydpdAGPkdJX_1f-UrJ-52">
          <mxGeometry relative="1" as="geometry">
            <mxPoint x="-295" y="-237.5" as="targetPoint" />
          </mxGeometry>
        </mxCell>
        <mxCell id="YMydpdAGPkdJX_1f-UrJ-52" value="Température" style="swimlane;fontStyle=1;align=center;verticalAlign=top;childLayout=stackLayout;horizontal=1;startSize=26;horizontalStack=0;resizeParent=1;resizeParentMax=0;resizeLast=0;collapsible=1;marginBottom=0;fillColor=#FAE5C7;strokeColor=#0F8B8D;fontColor=#143642;rounded=1;fontSize=16;" vertex="1" parent="1">
          <mxGeometry x="-290" y="-177.5" width="180" height="78" as="geometry" />
        </mxCell>
        <mxCell id="YMydpdAGPkdJX_1f-UrJ-53" value="+" style="text;strokeColor=none;fillColor=none;align=left;verticalAlign=top;spacingLeft=4;spacingRight=4;overflow=hidden;rotatable=0;points=[[0,0.5],[1,0.5]];portConstraint=eastwest;fontColor=#143642;rounded=1;fontSize=16;" vertex="1" parent="YMydpdAGPkdJX_1f-UrJ-52">
          <mxGeometry y="26" width="180" height="44" as="geometry" />
        </mxCell>
        <mxCell id="YMydpdAGPkdJX_1f-UrJ-54" value="" style="line;strokeWidth=1;fillColor=none;align=left;verticalAlign=middle;spacingTop=-1;spacingLeft=3;spacingRight=3;rotatable=0;labelPosition=right;points=[];portConstraint=eastwest;strokeColor=#0F8B8D;fontColor=#143642;labelBackgroundColor=#DAD2D8;rounded=1;fontSize=16;" vertex="1" parent="YMydpdAGPkdJX_1f-UrJ-52">
          <mxGeometry y="70" width="180" height="8" as="geometry" />
        </mxCell>
        <mxCell id="YMydpdAGPkdJX_1f-UrJ-55" value="Agent pathogène" style="swimlane;fontStyle=1;align=center;verticalAlign=top;childLayout=stackLayout;horizontal=1;startSize=26;horizontalStack=0;resizeParent=1;resizeParentMax=0;resizeLast=0;collapsible=1;marginBottom=0;fillColor=#FAE5C7;strokeColor=#0F8B8D;fontColor=#143642;rounded=1;fontSize=16;" vertex="1" parent="1">
          <mxGeometry x="-570" y="-886" width="150" height="36" as="geometry" />
        </mxCell>
        <mxCell id="YMydpdAGPkdJX_1f-UrJ-56" value="" style="line;strokeWidth=1;fillColor=none;align=left;verticalAlign=middle;spacingTop=-1;spacingLeft=3;spacingRight=3;rotatable=0;labelPosition=right;points=[];portConstraint=eastwest;strokeColor=#0F8B8D;fontColor=#143642;labelBackgroundColor=#DAD2D8;rounded=1;fontSize=16;" vertex="1" parent="YMydpdAGPkdJX_1f-UrJ-55">
          <mxGeometry y="26" width="150" height="10" as="geometry" />
        </mxCell>
        <mxCell id="YMydpdAGPkdJX_1f-UrJ-57" style="edgeStyle=orthogonalEdgeStyle;orthogonalLoop=1;jettySize=auto;html=1;entryX=0.008;entryY=0.158;entryDx=0;entryDy=0;fontColor=#143642;endArrow=block;endFill=0;strokeColor=#A8201A;fillColor=#FAE5C7;labelBackgroundColor=#DAD2D8;rounded=1;fontSize=16;entryPerimeter=0;" edge="1" parent="1" target="YMydpdAGPkdJX_1f-UrJ-145">
          <mxGeometry relative="1" as="geometry">
            <mxPoint x="-420" y="-867.0000000000002" as="sourcePoint" />
          </mxGeometry>
        </mxCell>
        <mxCell id="YMydpdAGPkdJX_1f-UrJ-58" style="edgeStyle=orthogonalEdgeStyle;orthogonalLoop=1;jettySize=auto;html=1;entryX=0.012;entryY=0.285;entryDx=0;entryDy=0;entryPerimeter=0;fontColor=#143642;endArrow=diamondThin;endFill=1;strokeColor=#A8201A;fillColor=#FAE5C7;labelBackgroundColor=#DAD2D8;rounded=1;fontSize=16;endSize=10;" edge="1" parent="1" source="YMydpdAGPkdJX_1f-UrJ-60" target="YMydpdAGPkdJX_1f-UrJ-27">
          <mxGeometry relative="1" as="geometry" />
        </mxCell>
        <mxCell id="YMydpdAGPkdJX_1f-UrJ-59" style="edgeStyle=orthogonalEdgeStyle;rounded=1;orthogonalLoop=1;jettySize=auto;html=1;exitX=0.5;exitY=0;exitDx=0;exitDy=0;fontSize=16;fontColor=#143642;endArrow=none;endFill=0;strokeColor=#A8201A;fillColor=#FAE5C7;entryX=0.453;entryY=1.077;entryDx=0;entryDy=0;entryPerimeter=0;" edge="1" parent="1" source="YMydpdAGPkdJX_1f-UrJ-60" target="YMydpdAGPkdJX_1f-UrJ-32">
          <mxGeometry relative="1" as="geometry">
            <mxPoint x="-15.142857142856883" y="-960" as="targetPoint" />
          </mxGeometry>
        </mxCell>
        <mxCell id="YMydpdAGPkdJX_1f-UrJ-60" value="Vecteurs" style="swimlane;fontStyle=1;align=center;verticalAlign=top;childLayout=stackLayout;horizontal=1;startSize=26;horizontalStack=0;resizeParent=1;resizeParentMax=0;resizeLast=0;collapsible=1;marginBottom=0;fillColor=#FAE5C7;strokeColor=#0F8B8D;fontColor=#143642;rounded=1;fontSize=16;" vertex="1" parent="1">
          <mxGeometry x="-105" y="-743.5" width="180" height="78" as="geometry" />
        </mxCell>
        <mxCell id="YMydpdAGPkdJX_1f-UrJ-61" value="+ localisation : geometry&#xa;" style="text;strokeColor=none;fillColor=none;align=left;verticalAlign=top;spacingLeft=4;spacingRight=4;overflow=hidden;rotatable=0;points=[[0,0.5],[1,0.5]];portConstraint=eastwest;fontColor=#143642;rounded=1;fontSize=16;" vertex="1" parent="YMydpdAGPkdJX_1f-UrJ-60">
          <mxGeometry y="26" width="180" height="44" as="geometry" />
        </mxCell>
        <mxCell id="YMydpdAGPkdJX_1f-UrJ-62" value="" style="line;strokeWidth=1;fillColor=none;align=left;verticalAlign=middle;spacingTop=-1;spacingLeft=3;spacingRight=3;rotatable=0;labelPosition=right;points=[];portConstraint=eastwest;strokeColor=#0F8B8D;fontColor=#143642;labelBackgroundColor=#DAD2D8;rounded=1;fontSize=16;" vertex="1" parent="YMydpdAGPkdJX_1f-UrJ-60">
          <mxGeometry y="70" width="180" height="8" as="geometry" />
        </mxCell>
        <mxCell id="YMydpdAGPkdJX_1f-UrJ-63" style="edgeStyle=orthogonalEdgeStyle;rounded=1;orthogonalLoop=1;jettySize=auto;html=1;exitX=0.5;exitY=0;exitDx=0;exitDy=0;entryX=0.5;entryY=1;entryDx=0;entryDy=0;fontSize=16;fontColor=#143642;endArrow=block;endFill=0;strokeColor=#A8201A;fillColor=#FAE5C7;endSize=10;" edge="1" parent="1" source="YMydpdAGPkdJX_1f-UrJ-64" target="YMydpdAGPkdJX_1f-UrJ-144">
          <mxGeometry relative="1" as="geometry" />
        </mxCell>
        <mxCell id="YMydpdAGPkdJX_1f-UrJ-64" value="Aedes" style="swimlane;fontStyle=1;align=center;verticalAlign=top;childLayout=stackLayout;horizontal=1;startSize=26;horizontalStack=0;resizeParent=1;resizeParentMax=0;resizeLast=0;collapsible=1;marginBottom=0;fillColor=#FAE5C7;strokeColor=#0F8B8D;fontColor=#143642;rounded=1;fontSize=16;" vertex="1" parent="1">
          <mxGeometry x="-245" y="-637" width="120" height="60" as="geometry" />
        </mxCell>
        <mxCell id="YMydpdAGPkdJX_1f-UrJ-65" value="+ espèce: char" style="text;strokeColor=none;fillColor=none;align=left;verticalAlign=top;spacingLeft=4;spacingRight=4;overflow=hidden;rotatable=0;points=[[0,0.5],[1,0.5]];portConstraint=eastwest;fontColor=#143642;rounded=1;fontSize=16;" vertex="1" parent="YMydpdAGPkdJX_1f-UrJ-64">
          <mxGeometry y="26" width="120" height="24" as="geometry" />
        </mxCell>
        <mxCell id="YMydpdAGPkdJX_1f-UrJ-66" value="" style="line;strokeWidth=1;fillColor=none;align=left;verticalAlign=middle;spacingTop=-1;spacingLeft=3;spacingRight=3;rotatable=0;labelPosition=right;points=[];portConstraint=eastwest;labelBackgroundColor=#DAD2D8;strokeColor=#0F8B8D;fontColor=#143642;rounded=1;fontSize=16;" vertex="1" parent="YMydpdAGPkdJX_1f-UrJ-64">
          <mxGeometry y="50" width="120" height="10" as="geometry" />
        </mxCell>
        <mxCell id="YMydpdAGPkdJX_1f-UrJ-67" value="Contribue" style="text;html=1;strokeColor=none;fillColor=none;align=center;verticalAlign=middle;whiteSpace=wrap;fontColor=#143642;rounded=1;fontSize=16;" vertex="1" parent="1">
          <mxGeometry x="29" y="-503.5" width="60" height="30" as="geometry" />
        </mxCell>
        <mxCell id="YMydpdAGPkdJX_1f-UrJ-68" style="edgeStyle=orthogonalEdgeStyle;orthogonalLoop=1;jettySize=auto;html=1;exitX=0.5;exitY=0;exitDx=0;exitDy=0;entryX=0.5;entryY=1;entryDx=0;entryDy=0;endArrow=block;endFill=0;labelBackgroundColor=#DAD2D8;strokeColor=#A8201A;fontColor=#143642;rounded=1;fontSize=16;endSize=10;" edge="1" parent="1" source="YMydpdAGPkdJX_1f-UrJ-69" target="YMydpdAGPkdJX_1f-UrJ-47">
          <mxGeometry relative="1" as="geometry" />
        </mxCell>
        <mxCell id="YMydpdAGPkdJX_1f-UrJ-69" value="Précipitation" style="swimlane;fontStyle=1;align=center;verticalAlign=top;childLayout=stackLayout;horizontal=1;startSize=26;horizontalStack=0;resizeParent=1;resizeParentMax=0;resizeLast=0;collapsible=1;marginBottom=0;fillColor=#FAE5C7;strokeColor=#0F8B8D;fontColor=#143642;rounded=1;fontSize=16;" vertex="1" parent="1">
          <mxGeometry x="-480" y="-177.5" width="180" height="78" as="geometry" />
        </mxCell>
        <mxCell id="YMydpdAGPkdJX_1f-UrJ-70" value="+" style="text;strokeColor=none;fillColor=none;align=left;verticalAlign=top;spacingLeft=4;spacingRight=4;overflow=hidden;rotatable=0;points=[[0,0.5],[1,0.5]];portConstraint=eastwest;fontColor=#143642;rounded=1;fontSize=16;" vertex="1" parent="YMydpdAGPkdJX_1f-UrJ-69">
          <mxGeometry y="26" width="180" height="44" as="geometry" />
        </mxCell>
        <mxCell id="YMydpdAGPkdJX_1f-UrJ-71" value="" style="line;strokeWidth=1;fillColor=none;align=left;verticalAlign=middle;spacingTop=-1;spacingLeft=3;spacingRight=3;rotatable=0;labelPosition=right;points=[];portConstraint=eastwest;strokeColor=#0F8B8D;fontColor=#143642;labelBackgroundColor=#DAD2D8;rounded=1;fontSize=16;" vertex="1" parent="YMydpdAGPkdJX_1f-UrJ-69">
          <mxGeometry y="70" width="180" height="8" as="geometry" />
        </mxCell>
        <mxCell id="YMydpdAGPkdJX_1f-UrJ-72" value="Contribue" style="text;html=1;strokeColor=none;fillColor=none;align=center;verticalAlign=middle;whiteSpace=wrap;fontColor=#143642;rounded=1;fontSize=16;" vertex="1" parent="1">
          <mxGeometry x="-305" y="-473.5" width="60" height="30" as="geometry" />
        </mxCell>
        <mxCell id="YMydpdAGPkdJX_1f-UrJ-73" value="Paysages" style="swimlane;fontStyle=1;align=center;verticalAlign=top;childLayout=stackLayout;horizontal=1;startSize=26;horizontalStack=0;resizeParent=1;resizeParentMax=0;resizeLast=0;collapsible=1;marginBottom=0;fillColor=#FAE5C7;strokeColor=#0F8B8D;fontColor=#143642;rounded=1;fontSize=16;" vertex="1" parent="1">
          <mxGeometry x="200" y="-386" width="160" height="60" as="geometry">
            <mxRectangle x="320" y="370" width="90" height="26" as="alternateBounds" />
          </mxGeometry>
        </mxCell>
        <mxCell id="YMydpdAGPkdJX_1f-UrJ-74" value="+" style="text;strokeColor=none;fillColor=none;align=left;verticalAlign=top;spacingLeft=4;spacingRight=4;overflow=hidden;rotatable=0;points=[[0,0.5],[1,0.5]];portConstraint=eastwest;fontColor=#143642;rounded=1;fontSize=16;" vertex="1" parent="YMydpdAGPkdJX_1f-UrJ-73">
          <mxGeometry y="26" width="160" height="26" as="geometry" />
        </mxCell>
        <mxCell id="YMydpdAGPkdJX_1f-UrJ-75" value="" style="line;strokeWidth=1;fillColor=none;align=left;verticalAlign=middle;spacingTop=-1;spacingLeft=3;spacingRight=3;rotatable=0;labelPosition=right;points=[];portConstraint=eastwest;labelBackgroundColor=#DAD2D8;strokeColor=#0F8B8D;fontColor=#143642;rounded=1;fontSize=16;" vertex="1" parent="YMydpdAGPkdJX_1f-UrJ-73">
          <mxGeometry y="52" width="160" height="8" as="geometry" />
        </mxCell>
        <mxCell id="YMydpdAGPkdJX_1f-UrJ-76" value="Urbain" style="swimlane;fontStyle=1;align=center;verticalAlign=top;childLayout=stackLayout;horizontal=1;startSize=26;horizontalStack=0;resizeParent=1;resizeParentMax=0;resizeLast=0;collapsible=1;marginBottom=0;fillColor=#FAE5C7;strokeColor=#0F8B8D;fontColor=#143642;rounded=1;fontSize=16;" vertex="1" parent="1">
          <mxGeometry x="-10" y="-210" width="110" height="78" as="geometry" />
        </mxCell>
        <mxCell id="YMydpdAGPkdJX_1f-UrJ-77" value="+" style="text;strokeColor=none;fillColor=none;align=left;verticalAlign=top;spacingLeft=4;spacingRight=4;overflow=hidden;rotatable=0;points=[[0,0.5],[1,0.5]];portConstraint=eastwest;fontColor=#143642;rounded=1;fontSize=16;" vertex="1" parent="YMydpdAGPkdJX_1f-UrJ-76">
          <mxGeometry y="26" width="110" height="44" as="geometry" />
        </mxCell>
        <mxCell id="YMydpdAGPkdJX_1f-UrJ-78" value="" style="line;strokeWidth=1;fillColor=none;align=left;verticalAlign=middle;spacingTop=-1;spacingLeft=3;spacingRight=3;rotatable=0;labelPosition=right;points=[];portConstraint=eastwest;strokeColor=#0F8B8D;fontColor=#143642;labelBackgroundColor=#DAD2D8;rounded=1;fontSize=16;" vertex="1" parent="YMydpdAGPkdJX_1f-UrJ-76">
          <mxGeometry y="70" width="110" height="8" as="geometry" />
        </mxCell>
        <mxCell id="YMydpdAGPkdJX_1f-UrJ-79" style="edgeStyle=orthogonalEdgeStyle;rounded=1;orthogonalLoop=1;jettySize=auto;html=1;exitX=0.25;exitY=0;exitDx=0;exitDy=0;fontSize=16;fontColor=#143642;endArrow=block;endFill=0;endSize=10;strokeColor=#A8201A;fillColor=#FAE5C7;" edge="1" parent="1" source="YMydpdAGPkdJX_1f-UrJ-80">
          <mxGeometry relative="1" as="geometry">
            <mxPoint y="-370" as="targetPoint" />
          </mxGeometry>
        </mxCell>
        <mxCell id="YMydpdAGPkdJX_1f-UrJ-80" value="Végétation" style="swimlane;fontStyle=1;align=center;verticalAlign=top;childLayout=stackLayout;horizontal=1;startSize=26;horizontalStack=0;resizeParent=1;resizeParentMax=0;resizeLast=0;collapsible=1;marginBottom=0;fillColor=#FAE5C7;strokeColor=#0F8B8D;fontColor=#143642;rounded=1;fontSize=16;" vertex="1" parent="1">
          <mxGeometry x="115" y="-210" width="110" height="78" as="geometry" />
        </mxCell>
        <mxCell id="YMydpdAGPkdJX_1f-UrJ-81" value="+" style="text;strokeColor=none;fillColor=none;align=left;verticalAlign=top;spacingLeft=4;spacingRight=4;overflow=hidden;rotatable=0;points=[[0,0.5],[1,0.5]];portConstraint=eastwest;fontColor=#143642;rounded=1;fontSize=16;" vertex="1" parent="YMydpdAGPkdJX_1f-UrJ-80">
          <mxGeometry y="26" width="110" height="44" as="geometry" />
        </mxCell>
        <mxCell id="YMydpdAGPkdJX_1f-UrJ-82" value="" style="line;strokeWidth=1;fillColor=none;align=left;verticalAlign=middle;spacingTop=-1;spacingLeft=3;spacingRight=3;rotatable=0;labelPosition=right;points=[];portConstraint=eastwest;strokeColor=#0F8B8D;fontColor=#143642;labelBackgroundColor=#DAD2D8;rounded=1;fontSize=16;" vertex="1" parent="YMydpdAGPkdJX_1f-UrJ-80">
          <mxGeometry y="70" width="110" height="8" as="geometry" />
        </mxCell>
        <mxCell id="YMydpdAGPkdJX_1f-UrJ-83" style="edgeStyle=orthogonalEdgeStyle;rounded=1;orthogonalLoop=1;jettySize=auto;html=1;exitX=0;exitY=0.5;exitDx=0;exitDy=0;entryX=0.25;entryY=1;entryDx=0;entryDy=0;endArrow=block;endFill=0;labelBackgroundColor=#DAD2D8;strokeColor=#A8201A;fontColor=#143642;fontSize=16;endSize=10;" edge="1" parent="1" source="YMydpdAGPkdJX_1f-UrJ-77" target="YMydpdAGPkdJX_1f-UrJ-42">
          <mxGeometry relative="1" as="geometry" />
        </mxCell>
        <mxCell id="YMydpdAGPkdJX_1f-UrJ-84" value="Humidité" style="swimlane;fontStyle=1;align=center;verticalAlign=top;childLayout=stackLayout;horizontal=1;startSize=26;horizontalStack=0;resizeParent=1;resizeParentMax=0;resizeLast=0;collapsible=1;marginBottom=0;fillColor=#FAE5C7;strokeColor=#0F8B8D;fontColor=#143642;rounded=1;fontSize=16;" vertex="1" parent="1">
          <mxGeometry x="-400" y="-60" width="180" height="78" as="geometry" />
        </mxCell>
        <mxCell id="YMydpdAGPkdJX_1f-UrJ-85" value="+" style="text;strokeColor=none;fillColor=none;align=left;verticalAlign=top;spacingLeft=4;spacingRight=4;overflow=hidden;rotatable=0;points=[[0,0.5],[1,0.5]];portConstraint=eastwest;fontColor=#143642;rounded=1;fontSize=16;" vertex="1" parent="YMydpdAGPkdJX_1f-UrJ-84">
          <mxGeometry y="26" width="180" height="44" as="geometry" />
        </mxCell>
        <mxCell id="YMydpdAGPkdJX_1f-UrJ-86" value="" style="line;strokeWidth=1;fillColor=none;align=left;verticalAlign=middle;spacingTop=-1;spacingLeft=3;spacingRight=3;rotatable=0;labelPosition=right;points=[];portConstraint=eastwest;strokeColor=#0F8B8D;fontColor=#143642;labelBackgroundColor=#DAD2D8;rounded=1;fontSize=16;" vertex="1" parent="YMydpdAGPkdJX_1f-UrJ-84">
          <mxGeometry y="70" width="180" height="8" as="geometry" />
        </mxCell>
        <mxCell id="YMydpdAGPkdJX_1f-UrJ-87" style="edgeStyle=orthogonalEdgeStyle;rounded=1;orthogonalLoop=1;jettySize=auto;html=1;exitX=0.5;exitY=0;exitDx=0;exitDy=0;entryX=0.5;entryY=1;entryDx=0;entryDy=0;labelBackgroundColor=#DAD2D8;strokeColor=#A8201A;fontColor=#143642;fontSize=16;endArrow=none;endFill=0;" edge="1" parent="1" source="YMydpdAGPkdJX_1f-UrJ-88" target="YMydpdAGPkdJX_1f-UrJ-1">
          <mxGeometry relative="1" as="geometry" />
        </mxCell>
        <mxCell id="YMydpdAGPkdJX_1f-UrJ-88" value="Vulnérabilité physique" style="swimlane;fontStyle=1;align=center;verticalAlign=top;childLayout=stackLayout;horizontal=1;startSize=26;horizontalStack=0;resizeParent=1;resizeParentMax=0;resizeLast=0;collapsible=1;marginBottom=0;fillColor=#FAE5C7;strokeColor=#0F8B8D;fontColor=#143642;rounded=1;fontSize=16;" vertex="1" parent="1">
          <mxGeometry x="437.5" y="-531.5" width="205" height="88" as="geometry">
            <mxRectangle x="320" y="370" width="90" height="26" as="alternateBounds" />
          </mxGeometry>
        </mxCell>
        <mxCell id="YMydpdAGPkdJX_1f-UrJ-89" value="+ localisation &#xa;+ densité&#xa;" style="text;strokeColor=none;fillColor=none;align=left;verticalAlign=top;spacingLeft=4;spacingRight=4;overflow=hidden;rotatable=0;points=[[0,0.5],[1,0.5]];portConstraint=eastwest;fontColor=#143642;rounded=1;fontSize=16;" vertex="1" parent="YMydpdAGPkdJX_1f-UrJ-88">
          <mxGeometry y="26" width="205" height="54" as="geometry" />
        </mxCell>
        <mxCell id="YMydpdAGPkdJX_1f-UrJ-90" value="" style="line;strokeWidth=1;fillColor=none;align=left;verticalAlign=middle;spacingTop=-1;spacingLeft=3;spacingRight=3;rotatable=0;labelPosition=right;points=[];portConstraint=eastwest;labelBackgroundColor=#DAD2D8;strokeColor=#0F8B8D;fontColor=#143642;rounded=1;fontSize=16;" vertex="1" parent="YMydpdAGPkdJX_1f-UrJ-88">
          <mxGeometry y="80" width="205" height="8" as="geometry" />
        </mxCell>
        <mxCell id="YMydpdAGPkdJX_1f-UrJ-91" style="edgeStyle=orthogonalEdgeStyle;rounded=1;orthogonalLoop=1;jettySize=auto;html=1;exitX=0.5;exitY=0;exitDx=0;exitDy=0;entryX=0.75;entryY=1;entryDx=0;entryDy=0;labelBackgroundColor=#DAD2D8;strokeColor=#A8201A;fontColor=#143642;fontSize=16;endArrow=none;endFill=0;" edge="1" parent="1" source="YMydpdAGPkdJX_1f-UrJ-92" target="YMydpdAGPkdJX_1f-UrJ-1">
          <mxGeometry relative="1" as="geometry">
            <Array as="points">
              <mxPoint x="1050" y="-600" />
              <mxPoint x="580" y="-600" />
            </Array>
          </mxGeometry>
        </mxCell>
        <mxCell id="YMydpdAGPkdJX_1f-UrJ-92" value="Capacité à faire face " style="swimlane;fontStyle=1;align=center;verticalAlign=top;childLayout=stackLayout;horizontal=1;startSize=26;horizontalStack=0;resizeParent=1;resizeParentMax=0;resizeLast=0;collapsible=1;marginBottom=0;fillColor=#FAE5C7;strokeColor=#0F8B8D;fontColor=#143642;rounded=1;fontSize=16;" vertex="1" parent="1">
          <mxGeometry x="930" y="-525" width="240" height="60" as="geometry">
            <mxRectangle x="320" y="370" width="90" height="26" as="alternateBounds" />
          </mxGeometry>
        </mxCell>
        <mxCell id="YMydpdAGPkdJX_1f-UrJ-93" value="+&#xa; " style="text;strokeColor=none;fillColor=none;align=left;verticalAlign=top;spacingLeft=4;spacingRight=4;overflow=hidden;rotatable=0;points=[[0,0.5],[1,0.5]];portConstraint=eastwest;fontColor=#143642;rounded=1;fontSize=16;" vertex="1" parent="YMydpdAGPkdJX_1f-UrJ-92">
          <mxGeometry y="26" width="240" height="26" as="geometry" />
        </mxCell>
        <mxCell id="YMydpdAGPkdJX_1f-UrJ-94" value="" style="line;strokeWidth=1;fillColor=none;align=left;verticalAlign=middle;spacingTop=-1;spacingLeft=3;spacingRight=3;rotatable=0;labelPosition=right;points=[];portConstraint=eastwest;labelBackgroundColor=#DAD2D8;strokeColor=#0F8B8D;fontColor=#143642;rounded=1;fontSize=16;" vertex="1" parent="YMydpdAGPkdJX_1f-UrJ-92">
          <mxGeometry y="52" width="240" height="8" as="geometry" />
        </mxCell>
        <mxCell id="YMydpdAGPkdJX_1f-UrJ-95" style="edgeStyle=orthogonalEdgeStyle;rounded=1;orthogonalLoop=1;jettySize=auto;html=1;exitX=0.5;exitY=0;exitDx=0;exitDy=0;labelBackgroundColor=#DAD2D8;strokeColor=#A8201A;fontColor=#143642;fontSize=16;endArrow=block;endFill=0;endSize=10;" edge="1" parent="1" source="YMydpdAGPkdJX_1f-UrJ-134" target="YMydpdAGPkdJX_1f-UrJ-21">
          <mxGeometry relative="1" as="geometry">
            <mxPoint x="730" y="-600" as="sourcePoint" />
          </mxGeometry>
        </mxCell>
        <mxCell id="YMydpdAGPkdJX_1f-UrJ-96" style="edgeStyle=orthogonalEdgeStyle;rounded=1;orthogonalLoop=1;jettySize=auto;html=1;labelBackgroundColor=#DAD2D8;strokeColor=#A8201A;fontColor=#143642;fontSize=16;exitX=0.5;exitY=0;exitDx=0;exitDy=0;endArrow=none;endFill=0;" edge="1" parent="1" source="YMydpdAGPkdJX_1f-UrJ-134">
          <mxGeometry relative="1" as="geometry">
            <mxPoint x="560" y="-790" as="targetPoint" />
            <mxPoint x="690" y="-570" as="sourcePoint" />
            <Array as="points">
              <mxPoint x="780" y="-540" />
              <mxPoint x="780" y="-570" />
              <mxPoint x="560" y="-570" />
            </Array>
          </mxGeometry>
        </mxCell>
        <mxCell id="YMydpdAGPkdJX_1f-UrJ-97" style="edgeStyle=orthogonalEdgeStyle;rounded=1;orthogonalLoop=1;jettySize=auto;html=1;exitX=0.5;exitY=0;exitDx=0;exitDy=0;labelBackgroundColor=#DAD2D8;strokeColor=#A8201A;fontColor=#143642;fontSize=16;endArrow=block;endFill=0;endSize=10;" edge="1" parent="1" source="YMydpdAGPkdJX_1f-UrJ-98">
          <mxGeometry relative="1" as="geometry">
            <mxPoint x="1050" y="-462.5" as="targetPoint" />
            <Array as="points">
              <mxPoint x="1060" y="-370" />
              <mxPoint x="1050" y="-370" />
            </Array>
          </mxGeometry>
        </mxCell>
        <mxCell id="YMydpdAGPkdJX_1f-UrJ-98" value="Protection" style="swimlane;fontStyle=1;align=center;verticalAlign=top;childLayout=stackLayout;horizontal=1;startSize=26;horizontalStack=0;resizeParent=1;resizeParentMax=0;resizeLast=0;collapsible=1;marginBottom=0;fillColor=#FAE5C7;strokeColor=#0F8B8D;fontColor=#143642;rounded=1;fontSize=16;" vertex="1" parent="1">
          <mxGeometry x="1000" y="-360" width="120" height="34" as="geometry">
            <mxRectangle x="320" y="370" width="90" height="26" as="alternateBounds" />
          </mxGeometry>
        </mxCell>
        <mxCell id="YMydpdAGPkdJX_1f-UrJ-99" value="impact" style="text;html=1;strokeColor=none;fillColor=none;align=center;verticalAlign=middle;whiteSpace=wrap;rounded=1;fontColor=#143642;fontSize=16;" vertex="1" parent="1">
          <mxGeometry x="730" y="-748.5" width="60" height="30" as="geometry" />
        </mxCell>
        <mxCell id="YMydpdAGPkdJX_1f-UrJ-100" style="edgeStyle=orthogonalEdgeStyle;rounded=1;orthogonalLoop=1;jettySize=auto;html=1;exitX=0.5;exitY=0;exitDx=0;exitDy=0;labelBackgroundColor=#DAD2D8;strokeColor=#A8201A;fontColor=#143642;fontSize=16;endArrow=block;endFill=0;endSize=10;" edge="1" parent="1" source="YMydpdAGPkdJX_1f-UrJ-101">
          <mxGeometry relative="1" as="geometry">
            <mxPoint x="1060" y="-462.5" as="targetPoint" />
          </mxGeometry>
        </mxCell>
        <mxCell id="YMydpdAGPkdJX_1f-UrJ-101" value="Action locale" style="swimlane;fontStyle=1;align=center;verticalAlign=top;childLayout=stackLayout;horizontal=1;startSize=26;horizontalStack=0;resizeParent=1;resizeParentMax=0;resizeLast=0;collapsible=1;marginBottom=0;fillColor=#FAE5C7;strokeColor=#0F8B8D;fontColor=#143642;rounded=1;fontSize=16;" vertex="1" parent="1">
          <mxGeometry x="1130" y="-373" width="120" height="34" as="geometry">
            <mxRectangle x="320" y="370" width="90" height="26" as="alternateBounds" />
          </mxGeometry>
        </mxCell>
        <mxCell id="YMydpdAGPkdJX_1f-UrJ-102" value="" style="line;strokeWidth=1;fillColor=none;align=left;verticalAlign=middle;spacingTop=-1;spacingLeft=3;spacingRight=3;rotatable=0;labelPosition=right;points=[];portConstraint=eastwest;labelBackgroundColor=#DAD2D8;strokeColor=#0F8B8D;fontColor=#143642;rounded=1;fontSize=16;" vertex="1" parent="YMydpdAGPkdJX_1f-UrJ-101">
          <mxGeometry y="26" width="120" height="8" as="geometry" />
        </mxCell>
        <mxCell id="YMydpdAGPkdJX_1f-UrJ-103" style="edgeStyle=orthogonalEdgeStyle;rounded=1;orthogonalLoop=1;jettySize=auto;html=1;exitX=0;exitY=0.5;exitDx=0;exitDy=0;labelBackgroundColor=#DAD2D8;strokeColor=#A8201A;fontColor=#143642;fontSize=16;entryX=0.437;entryY=1.06;entryDx=0;entryDy=0;entryPerimeter=0;endArrow=block;endFill=0;endSize=10;" edge="1" parent="1" source="YMydpdAGPkdJX_1f-UrJ-104" target="YMydpdAGPkdJX_1f-UrJ-136">
          <mxGeometry relative="1" as="geometry">
            <mxPoint x="750" y="-432.5" as="targetPoint" />
          </mxGeometry>
        </mxCell>
        <mxCell id="YMydpdAGPkdJX_1f-UrJ-104" value="Âge" style="swimlane;fontStyle=1;align=center;verticalAlign=top;childLayout=stackLayout;horizontal=1;startSize=26;horizontalStack=0;resizeParent=1;resizeParentMax=0;resizeLast=0;collapsible=1;marginBottom=0;fillColor=#FAE5C7;strokeColor=#0F8B8D;fontColor=#143642;rounded=1;fontSize=16;" vertex="1" parent="1">
          <mxGeometry x="782.5" y="-403" width="120" height="34" as="geometry">
            <mxRectangle x="320" y="370" width="90" height="26" as="alternateBounds" />
          </mxGeometry>
        </mxCell>
        <mxCell id="YMydpdAGPkdJX_1f-UrJ-105" value="" style="line;strokeWidth=1;fillColor=none;align=left;verticalAlign=middle;spacingTop=-1;spacingLeft=3;spacingRight=3;rotatable=0;labelPosition=right;points=[];portConstraint=eastwest;labelBackgroundColor=#DAD2D8;strokeColor=#0F8B8D;fontColor=#143642;rounded=1;fontSize=16;" vertex="1" parent="YMydpdAGPkdJX_1f-UrJ-104">
          <mxGeometry y="26" width="120" height="8" as="geometry" />
        </mxCell>
        <mxCell id="YMydpdAGPkdJX_1f-UrJ-106" style="edgeStyle=orthogonalEdgeStyle;rounded=1;orthogonalLoop=1;jettySize=auto;html=1;exitX=0;exitY=0.25;exitDx=0;exitDy=0;labelBackgroundColor=#DAD2D8;strokeColor=#A8201A;fontColor=#143642;fontSize=16;entryX=0.25;entryY=1;entryDx=0;entryDy=0;endArrow=block;endFill=0;endSize=10;" edge="1" parent="1" source="YMydpdAGPkdJX_1f-UrJ-107" target="YMydpdAGPkdJX_1f-UrJ-134">
          <mxGeometry relative="1" as="geometry">
            <mxPoint x="710" y="-492.5" as="targetPoint" />
          </mxGeometry>
        </mxCell>
        <mxCell id="YMydpdAGPkdJX_1f-UrJ-107" value="Héritage génétique" style="swimlane;fontStyle=1;align=center;verticalAlign=top;childLayout=stackLayout;horizontal=1;startSize=26;horizontalStack=0;resizeParent=1;resizeParentMax=0;resizeLast=0;collapsible=1;marginBottom=0;fillColor=#FAE5C7;strokeColor=#0F8B8D;fontColor=#143642;rounded=1;fontSize=16;" vertex="1" parent="1">
          <mxGeometry x="760" y="-360" width="170" height="34" as="geometry">
            <mxRectangle x="320" y="370" width="90" height="26" as="alternateBounds" />
          </mxGeometry>
        </mxCell>
        <mxCell id="YMydpdAGPkdJX_1f-UrJ-108" value="" style="line;strokeWidth=1;fillColor=none;align=left;verticalAlign=middle;spacingTop=-1;spacingLeft=3;spacingRight=3;rotatable=0;labelPosition=right;points=[];portConstraint=eastwest;labelBackgroundColor=#DAD2D8;strokeColor=#0F8B8D;fontColor=#143642;rounded=1;fontSize=16;" vertex="1" parent="YMydpdAGPkdJX_1f-UrJ-107">
          <mxGeometry y="26" width="170" height="8" as="geometry" />
        </mxCell>
        <mxCell id="YMydpdAGPkdJX_1f-UrJ-109" style="edgeStyle=orthogonalEdgeStyle;rounded=1;orthogonalLoop=1;jettySize=auto;html=1;exitX=0;exitY=0.5;exitDx=0;exitDy=0;entryX=0;entryY=0.5;entryDx=0;entryDy=0;labelBackgroundColor=#DAD2D8;strokeColor=#A8201A;fontColor=#143642;fontSize=16;endArrow=block;endFill=0;endSize=10;" edge="1" parent="1" source="YMydpdAGPkdJX_1f-UrJ-110" target="YMydpdAGPkdJX_1f-UrJ-134">
          <mxGeometry relative="1" as="geometry">
            <mxPoint x="690" y="-452.5" as="targetPoint" />
          </mxGeometry>
        </mxCell>
        <mxCell id="YMydpdAGPkdJX_1f-UrJ-110" value="Pratiques culturelles" style="swimlane;fontStyle=1;align=center;verticalAlign=top;childLayout=stackLayout;horizontal=1;startSize=26;horizontalStack=0;resizeParent=1;resizeParentMax=0;resizeLast=0;collapsible=1;marginBottom=0;fillColor=#FAE5C7;strokeColor=#0F8B8D;fontColor=#143642;rounded=1;fontSize=16;" vertex="1" parent="1">
          <mxGeometry x="760" y="-312.5" width="170" height="34" as="geometry">
            <mxRectangle x="320" y="370" width="90" height="26" as="alternateBounds" />
          </mxGeometry>
        </mxCell>
        <mxCell id="YMydpdAGPkdJX_1f-UrJ-111" value="" style="line;strokeWidth=1;fillColor=none;align=left;verticalAlign=middle;spacingTop=-1;spacingLeft=3;spacingRight=3;rotatable=0;labelPosition=right;points=[];portConstraint=eastwest;labelBackgroundColor=#DAD2D8;strokeColor=#0F8B8D;fontColor=#143642;rounded=1;fontSize=16;" vertex="1" parent="YMydpdAGPkdJX_1f-UrJ-110">
          <mxGeometry y="26" width="170" height="8" as="geometry" />
        </mxCell>
        <mxCell id="YMydpdAGPkdJX_1f-UrJ-112" style="edgeStyle=orthogonalEdgeStyle;rounded=1;orthogonalLoop=1;jettySize=auto;html=1;exitX=0;exitY=0.5;exitDx=0;exitDy=0;entryX=0.094;entryY=0.897;entryDx=0;entryDy=0;fontColor=#143642;strokeColor=#A8201A;fillColor=#FAE5C7;fontSize=16;entryPerimeter=0;endArrow=block;endFill=0;endSize=10;" edge="1" parent="1" source="YMydpdAGPkdJX_1f-UrJ-113" target="YMydpdAGPkdJX_1f-UrJ-136">
          <mxGeometry relative="1" as="geometry">
            <mxPoint x="690" y="-502.5" as="targetPoint" />
          </mxGeometry>
        </mxCell>
        <mxCell id="YMydpdAGPkdJX_1f-UrJ-113" value="Connaissances&#xa;" style="swimlane;fontStyle=1;align=center;verticalAlign=top;childLayout=stackLayout;horizontal=1;startSize=26;horizontalStack=0;resizeParent=1;resizeParentMax=0;resizeLast=0;collapsible=1;marginBottom=0;fillColor=#FAE5C7;strokeColor=#0F8B8D;fontColor=#143642;rounded=1;fontSize=16;" vertex="1" parent="1">
          <mxGeometry x="767.5" y="-262.5" width="162.5" height="34" as="geometry">
            <mxRectangle x="320" y="370" width="90" height="26" as="alternateBounds" />
          </mxGeometry>
        </mxCell>
        <mxCell id="YMydpdAGPkdJX_1f-UrJ-114" value="" style="line;strokeWidth=1;fillColor=none;align=left;verticalAlign=middle;spacingTop=-1;spacingLeft=3;spacingRight=3;rotatable=0;labelPosition=right;points=[];portConstraint=eastwest;labelBackgroundColor=#DAD2D8;strokeColor=#0F8B8D;fontColor=#143642;rounded=1;fontSize=16;" vertex="1" parent="YMydpdAGPkdJX_1f-UrJ-113">
          <mxGeometry y="26" width="162.5" height="8" as="geometry" />
        </mxCell>
        <mxCell id="YMydpdAGPkdJX_1f-UrJ-115" style="edgeStyle=orthogonalEdgeStyle;rounded=1;orthogonalLoop=1;jettySize=auto;html=1;exitX=0.5;exitY=0;exitDx=0;exitDy=0;entryX=0.5;entryY=1;entryDx=0;entryDy=0;fontColor=#143642;strokeColor=#A8201A;fillColor=#FAE5C7;fontSize=16;endArrow=block;endFill=0;endSize=10;" edge="1" parent="1" source="YMydpdAGPkdJX_1f-UrJ-116" target="YMydpdAGPkdJX_1f-UrJ-55">
          <mxGeometry relative="1" as="geometry" />
        </mxCell>
        <mxCell id="YMydpdAGPkdJX_1f-UrJ-116" value="Virus" style="swimlane;fontStyle=1;align=center;verticalAlign=top;childLayout=stackLayout;horizontal=1;startSize=26;horizontalStack=0;resizeParent=1;resizeParentMax=0;resizeLast=0;collapsible=1;marginBottom=0;fillColor=#FAE5C7;strokeColor=#0F8B8D;fontColor=#143642;rounded=1;fontSize=16;" vertex="1" parent="1">
          <mxGeometry x="-570" y="-800" width="150" height="36" as="geometry" />
        </mxCell>
        <mxCell id="YMydpdAGPkdJX_1f-UrJ-117" value="" style="line;strokeWidth=1;fillColor=none;align=left;verticalAlign=middle;spacingTop=-1;spacingLeft=3;spacingRight=3;rotatable=0;labelPosition=right;points=[];portConstraint=eastwest;strokeColor=#0F8B8D;fontColor=#143642;labelBackgroundColor=#DAD2D8;rounded=1;fontSize=16;" vertex="1" parent="YMydpdAGPkdJX_1f-UrJ-116">
          <mxGeometry y="26" width="150" height="10" as="geometry" />
        </mxCell>
        <mxCell id="YMydpdAGPkdJX_1f-UrJ-118" style="edgeStyle=orthogonalEdgeStyle;rounded=1;orthogonalLoop=1;jettySize=auto;html=1;exitX=0.5;exitY=0;exitDx=0;exitDy=0;fontColor=#143642;strokeColor=#A8201A;fillColor=#FAE5C7;fontSize=16;endArrow=block;endFill=0;endSize=10;" edge="1" parent="1" source="YMydpdAGPkdJX_1f-UrJ-119">
          <mxGeometry relative="1" as="geometry">
            <mxPoint x="-510" y="-760" as="targetPoint" />
          </mxGeometry>
        </mxCell>
        <mxCell id="YMydpdAGPkdJX_1f-UrJ-119" value="Dengue" style="swimlane;fontStyle=1;align=center;verticalAlign=top;childLayout=stackLayout;horizontal=1;startSize=26;horizontalStack=0;resizeParent=1;resizeParentMax=0;resizeLast=0;collapsible=1;marginBottom=0;fillColor=#FAE5C7;strokeColor=#0F8B8D;fontColor=#143642;rounded=1;fontSize=16;" vertex="1" parent="1">
          <mxGeometry x="-670" y="-697" width="160" height="60" as="geometry" />
        </mxCell>
        <mxCell id="YMydpdAGPkdJX_1f-UrJ-120" value="+ genre:char (flavivirus)" style="text;strokeColor=none;fillColor=none;align=left;verticalAlign=top;spacingLeft=4;spacingRight=4;overflow=hidden;rotatable=0;points=[[0,0.5],[1,0.5]];portConstraint=eastwest;fontColor=#143642;rounded=1;fontSize=16;" vertex="1" parent="YMydpdAGPkdJX_1f-UrJ-119">
          <mxGeometry y="26" width="160" height="24" as="geometry" />
        </mxCell>
        <mxCell id="YMydpdAGPkdJX_1f-UrJ-121" value="" style="line;strokeWidth=1;fillColor=none;align=left;verticalAlign=middle;spacingTop=-1;spacingLeft=3;spacingRight=3;rotatable=0;labelPosition=right;points=[];portConstraint=eastwest;labelBackgroundColor=#DAD2D8;strokeColor=#0F8B8D;fontColor=#143642;rounded=1;fontSize=16;" vertex="1" parent="YMydpdAGPkdJX_1f-UrJ-119">
          <mxGeometry y="50" width="160" height="10" as="geometry" />
        </mxCell>
        <mxCell id="YMydpdAGPkdJX_1f-UrJ-122" style="edgeStyle=orthogonalEdgeStyle;rounded=1;orthogonalLoop=1;jettySize=auto;html=1;exitX=0.5;exitY=0;exitDx=0;exitDy=0;fontColor=#143642;strokeColor=#A8201A;fillColor=#FAE5C7;fontSize=16;endArrow=block;endFill=0;endSize=10;" edge="1" parent="1" source="YMydpdAGPkdJX_1f-UrJ-123">
          <mxGeometry relative="1" as="geometry">
            <mxPoint x="-490" y="-760" as="targetPoint" />
          </mxGeometry>
        </mxCell>
        <mxCell id="YMydpdAGPkdJX_1f-UrJ-123" value="Zika" style="swimlane;fontStyle=1;align=center;verticalAlign=top;childLayout=stackLayout;horizontal=1;startSize=26;horizontalStack=0;resizeParent=1;resizeParentMax=0;resizeLast=0;collapsible=1;marginBottom=0;fillColor=#FAE5C7;strokeColor=#0F8B8D;fontColor=#143642;rounded=1;fontSize=16;" vertex="1" parent="1">
          <mxGeometry x="-837" y="-697" width="160" height="60" as="geometry" />
        </mxCell>
        <mxCell id="YMydpdAGPkdJX_1f-UrJ-124" value="+ genre:char (flavivirus)" style="text;strokeColor=none;fillColor=none;align=left;verticalAlign=top;spacingLeft=4;spacingRight=4;overflow=hidden;rotatable=0;points=[[0,0.5],[1,0.5]];portConstraint=eastwest;fontColor=#143642;rounded=1;fontSize=16;" vertex="1" parent="YMydpdAGPkdJX_1f-UrJ-123">
          <mxGeometry y="26" width="160" height="24" as="geometry" />
        </mxCell>
        <mxCell id="YMydpdAGPkdJX_1f-UrJ-125" value="" style="line;strokeWidth=1;fillColor=none;align=left;verticalAlign=middle;spacingTop=-1;spacingLeft=3;spacingRight=3;rotatable=0;labelPosition=right;points=[];portConstraint=eastwest;labelBackgroundColor=#DAD2D8;strokeColor=#0F8B8D;fontColor=#143642;rounded=1;fontSize=16;" vertex="1" parent="YMydpdAGPkdJX_1f-UrJ-123">
          <mxGeometry y="50" width="160" height="10" as="geometry" />
        </mxCell>
        <mxCell id="YMydpdAGPkdJX_1f-UrJ-126" style="edgeStyle=orthogonalEdgeStyle;rounded=1;orthogonalLoop=1;jettySize=auto;html=1;exitX=0.5;exitY=0;exitDx=0;exitDy=0;fontColor=#143642;strokeColor=#A8201A;fillColor=#FAE5C7;fontSize=16;endArrow=block;endFill=0;endSize=10;" edge="1" parent="1" source="YMydpdAGPkdJX_1f-UrJ-127">
          <mxGeometry relative="1" as="geometry">
            <mxPoint x="-480" y="-760" as="targetPoint" />
          </mxGeometry>
        </mxCell>
        <mxCell id="YMydpdAGPkdJX_1f-UrJ-127" value="Chikungunya" style="swimlane;fontStyle=1;align=center;verticalAlign=top;childLayout=stackLayout;horizontal=1;startSize=26;horizontalStack=0;resizeParent=1;resizeParentMax=0;resizeLast=0;collapsible=1;marginBottom=0;fillColor=#FAE5C7;strokeColor=#0F8B8D;fontColor=#143642;rounded=1;fontSize=16;arcSize=0;" vertex="1" parent="1">
          <mxGeometry x="-480" y="-697" width="170" height="60" as="geometry" />
        </mxCell>
        <mxCell id="YMydpdAGPkdJX_1f-UrJ-128" value="+ genre:char (alphavirus)" style="text;strokeColor=none;fillColor=none;align=left;verticalAlign=top;spacingLeft=4;spacingRight=4;overflow=hidden;rotatable=0;points=[[0,0.5],[1,0.5]];portConstraint=eastwest;fontColor=#143642;rounded=1;fontSize=16;" vertex="1" parent="YMydpdAGPkdJX_1f-UrJ-127">
          <mxGeometry y="26" width="170" height="24" as="geometry" />
        </mxCell>
        <mxCell id="YMydpdAGPkdJX_1f-UrJ-129" value="" style="line;strokeWidth=1;fillColor=none;align=left;verticalAlign=middle;spacingTop=-1;spacingLeft=3;spacingRight=3;rotatable=0;labelPosition=right;points=[];portConstraint=eastwest;labelBackgroundColor=#DAD2D8;strokeColor=#0F8B8D;fontColor=#143642;rounded=1;fontSize=16;" vertex="1" parent="YMydpdAGPkdJX_1f-UrJ-127">
          <mxGeometry y="50" width="170" height="10" as="geometry" />
        </mxCell>
        <mxCell id="YMydpdAGPkdJX_1f-UrJ-130" style="edgeStyle=orthogonalEdgeStyle;rounded=1;orthogonalLoop=1;jettySize=auto;html=1;exitX=0.5;exitY=0;exitDx=0;exitDy=0;entryX=0.25;entryY=1;entryDx=0;entryDy=0;fontColor=#143642;strokeColor=#A8201A;fillColor=#FAE5C7;fontSize=16;endArrow=block;endFill=0;endSize=10;" edge="1" parent="1" source="YMydpdAGPkdJX_1f-UrJ-131" target="YMydpdAGPkdJX_1f-UrJ-116">
          <mxGeometry relative="1" as="geometry" />
        </mxCell>
        <mxCell id="YMydpdAGPkdJX_1f-UrJ-131" value="Fièvre jaune" style="swimlane;fontStyle=1;align=center;verticalAlign=top;childLayout=stackLayout;horizontal=1;startSize=26;horizontalStack=0;resizeParent=1;resizeParentMax=0;resizeLast=0;collapsible=1;marginBottom=0;fillColor=#FAE5C7;strokeColor=#0F8B8D;fontColor=#143642;rounded=1;fontSize=16;" vertex="1" parent="1">
          <mxGeometry x="-1020" y="-697" width="180" height="60" as="geometry" />
        </mxCell>
        <mxCell id="YMydpdAGPkdJX_1f-UrJ-132" value="+ genre:char (flavivirus)" style="text;strokeColor=none;fillColor=none;align=left;verticalAlign=top;spacingLeft=4;spacingRight=4;overflow=hidden;rotatable=0;points=[[0,0.5],[1,0.5]];portConstraint=eastwest;fontColor=#143642;rounded=1;fontSize=16;" vertex="1" parent="YMydpdAGPkdJX_1f-UrJ-131">
          <mxGeometry y="26" width="180" height="24" as="geometry" />
        </mxCell>
        <mxCell id="YMydpdAGPkdJX_1f-UrJ-133" value="" style="line;strokeWidth=1;fillColor=none;align=left;verticalAlign=middle;spacingTop=-1;spacingLeft=3;spacingRight=3;rotatable=0;labelPosition=right;points=[];portConstraint=eastwest;labelBackgroundColor=#DAD2D8;strokeColor=#0F8B8D;fontColor=#143642;rounded=1;fontSize=16;" vertex="1" parent="YMydpdAGPkdJX_1f-UrJ-131">
          <mxGeometry y="50" width="180" height="10" as="geometry" />
        </mxCell>
        <mxCell id="YMydpdAGPkdJX_1f-UrJ-134" value="Vulnérabilité socio-éco" style="swimlane;fontStyle=1;align=center;verticalAlign=top;childLayout=stackLayout;horizontal=1;startSize=26;horizontalStack=0;resizeParent=1;resizeParentMax=0;resizeLast=0;collapsible=1;marginBottom=0;fillColor=#FAE5C7;strokeColor=#0F8B8D;fontColor=#143642;rounded=1;fontSize=16;" vertex="1" parent="1">
          <mxGeometry x="690" y="-540" width="190" height="60" as="geometry">
            <mxRectangle x="320" y="370" width="90" height="26" as="alternateBounds" />
          </mxGeometry>
        </mxCell>
        <mxCell id="YMydpdAGPkdJX_1f-UrJ-135" value="+  &#xa;" style="text;strokeColor=none;fillColor=none;align=left;verticalAlign=top;spacingLeft=4;spacingRight=4;overflow=hidden;rotatable=0;points=[[0,0.5],[1,0.5]];portConstraint=eastwest;fontColor=#143642;rounded=1;fontSize=16;" vertex="1" parent="YMydpdAGPkdJX_1f-UrJ-134">
          <mxGeometry y="26" width="190" height="26" as="geometry" />
        </mxCell>
        <mxCell id="YMydpdAGPkdJX_1f-UrJ-136" value="" style="line;strokeWidth=1;fillColor=none;align=left;verticalAlign=middle;spacingTop=-1;spacingLeft=3;spacingRight=3;rotatable=0;labelPosition=right;points=[];portConstraint=eastwest;labelBackgroundColor=#DAD2D8;strokeColor=#0F8B8D;fontColor=#143642;rounded=1;fontSize=16;" vertex="1" parent="YMydpdAGPkdJX_1f-UrJ-134">
          <mxGeometry y="52" width="190" height="8" as="geometry" />
        </mxCell>
        <mxCell id="YMydpdAGPkdJX_1f-UrJ-137" value="est un&amp;nbsp;" style="text;html=1;strokeColor=none;fillColor=none;align=center;verticalAlign=middle;whiteSpace=wrap;rounded=0;fontSize=16;fontColor=#143642;" vertex="1" parent="1">
          <mxGeometry x="-870" y="-755" width="60" height="30" as="geometry" />
        </mxCell>
        <mxCell id="YMydpdAGPkdJX_1f-UrJ-138" value="est un&amp;nbsp;" style="text;html=1;strokeColor=none;fillColor=none;align=center;verticalAlign=middle;whiteSpace=wrap;rounded=0;fontSize=16;fontColor=#143642;" vertex="1" parent="1">
          <mxGeometry x="-730" y="-753.5" width="60" height="30" as="geometry" />
        </mxCell>
        <mxCell id="YMydpdAGPkdJX_1f-UrJ-139" value="est un&amp;nbsp;" style="text;html=1;strokeColor=none;fillColor=none;align=center;verticalAlign=middle;whiteSpace=wrap;rounded=0;fontSize=16;fontColor=#143642;" vertex="1" parent="1">
          <mxGeometry x="-620" y="-753.5" width="70" height="30" as="geometry" />
        </mxCell>
        <mxCell id="YMydpdAGPkdJX_1f-UrJ-140" value="est un&amp;nbsp;" style="text;html=1;strokeColor=none;fillColor=none;align=center;verticalAlign=middle;whiteSpace=wrap;rounded=0;fontSize=16;fontColor=#143642;" vertex="1" parent="1">
          <mxGeometry x="-440" y="-753.5" width="60" height="30" as="geometry" />
        </mxCell>
        <mxCell id="YMydpdAGPkdJX_1f-UrJ-141" value="est un&amp;nbsp;" style="text;html=1;strokeColor=none;fillColor=none;align=center;verticalAlign=middle;whiteSpace=wrap;rounded=0;fontSize=16;fontColor=#143642;" vertex="1" parent="1">
          <mxGeometry x="-570" y="-842" width="60" height="30" as="geometry" />
        </mxCell>
        <mxCell id="YMydpdAGPkdJX_1f-UrJ-142" value="engendre" style="text;html=1;strokeColor=none;fillColor=none;align=center;verticalAlign=middle;whiteSpace=wrap;rounded=0;fontSize=16;fontColor=#143642;" vertex="1" parent="1">
          <mxGeometry x="-380" y="-900" width="60" height="30" as="geometry" />
        </mxCell>
        <mxCell id="YMydpdAGPkdJX_1f-UrJ-143" style="edgeStyle=orthogonalEdgeStyle;rounded=1;orthogonalLoop=1;jettySize=auto;html=1;exitX=0.5;exitY=0;exitDx=0;exitDy=0;entryX=0.5;entryY=1;entryDx=0;entryDy=0;fontSize=16;fontColor=#143642;endArrow=none;endFill=0;strokeColor=#A8201A;fillColor=#FAE5C7;" edge="1" parent="1" source="YMydpdAGPkdJX_1f-UrJ-144" target="YMydpdAGPkdJX_1f-UrJ-33">
          <mxGeometry relative="1" as="geometry" />
        </mxCell>
        <mxCell id="YMydpdAGPkdJX_1f-UrJ-144" value="Vecteurs infectées" style="swimlane;fontStyle=1;align=center;verticalAlign=top;childLayout=stackLayout;horizontal=1;startSize=26;horizontalStack=0;resizeParent=1;resizeParentMax=0;resizeLast=0;collapsible=1;marginBottom=0;fillColor=#FAE5C7;strokeColor=#0F8B8D;fontColor=#143642;rounded=1;fontSize=16;" vertex="1" parent="1">
          <mxGeometry x="-275" y="-942.5" width="180" height="78" as="geometry" />
        </mxCell>
        <mxCell id="YMydpdAGPkdJX_1f-UrJ-145" value="+ localisation : geometry&#xa;" style="text;strokeColor=none;fillColor=none;align=left;verticalAlign=top;spacingLeft=4;spacingRight=4;overflow=hidden;rotatable=0;points=[[0,0.5],[1,0.5]];portConstraint=eastwest;fontColor=#143642;rounded=1;fontSize=16;" vertex="1" parent="YMydpdAGPkdJX_1f-UrJ-144">
          <mxGeometry y="26" width="180" height="44" as="geometry" />
        </mxCell>
        <mxCell id="YMydpdAGPkdJX_1f-UrJ-146" value="" style="line;strokeWidth=1;fillColor=none;align=left;verticalAlign=middle;spacingTop=-1;spacingLeft=3;spacingRight=3;rotatable=0;labelPosition=right;points=[];portConstraint=eastwest;strokeColor=#0F8B8D;fontColor=#143642;labelBackgroundColor=#DAD2D8;rounded=1;fontSize=16;" vertex="1" parent="YMydpdAGPkdJX_1f-UrJ-144">
          <mxGeometry y="70" width="180" height="8" as="geometry" />
        </mxCell>
        <mxCell id="YMydpdAGPkdJX_1f-UrJ-147" style="edgeStyle=orthogonalEdgeStyle;rounded=1;orthogonalLoop=1;jettySize=auto;html=1;exitX=0.5;exitY=0;exitDx=0;exitDy=0;entryX=0.5;entryY=1;entryDx=0;entryDy=0;fontSize=16;fontColor=#143642;endArrow=block;endFill=0;strokeColor=#A8201A;fillColor=#FAE5C7;endSize=10;" edge="1" parent="1" source="YMydpdAGPkdJX_1f-UrJ-148" target="YMydpdAGPkdJX_1f-UrJ-20">
          <mxGeometry relative="1" as="geometry" />
        </mxCell>
        <mxCell id="YMydpdAGPkdJX_1f-UrJ-148" value="Indiviu humain&#xa;" style="swimlane;fontStyle=1;align=center;verticalAlign=top;childLayout=stackLayout;horizontal=1;startSize=26;horizontalStack=0;resizeParent=1;resizeParentMax=0;resizeLast=0;collapsible=1;marginBottom=0;fillColor=#FAE5C7;strokeColor=#0F8B8D;fontColor=#143642;rounded=1;fontSize=16;" vertex="1" parent="1">
          <mxGeometry x="817.5" y="-761.5" width="180" height="56" as="geometry" />
        </mxCell>
        <mxCell id="YMydpdAGPkdJX_1f-UrJ-149" value="+ label: char (pop ou indiv)" style="text;strokeColor=none;fillColor=none;align=left;verticalAlign=top;spacingLeft=4;spacingRight=4;overflow=hidden;rotatable=0;points=[[0,0.5],[1,0.5]];portConstraint=eastwest;fontColor=#143642;rounded=1;fontSize=16;" vertex="1" parent="YMydpdAGPkdJX_1f-UrJ-148">
          <mxGeometry y="26" width="180" height="22" as="geometry" />
        </mxCell>
        <mxCell id="YMydpdAGPkdJX_1f-UrJ-150" value="" style="line;strokeWidth=1;fillColor=none;align=left;verticalAlign=middle;spacingTop=-1;spacingLeft=3;spacingRight=3;rotatable=0;labelPosition=right;points=[];portConstraint=eastwest;strokeColor=#0F8B8D;fontColor=#143642;labelBackgroundColor=#DAD2D8;rounded=1;fontSize=16;" vertex="1" parent="YMydpdAGPkdJX_1f-UrJ-148">
          <mxGeometry y="48" width="180" height="8" as="geometry" />
        </mxCell>
        <mxCell id="YMydpdAGPkdJX_1f-UrJ-151" style="edgeStyle=orthogonalEdgeStyle;rounded=1;orthogonalLoop=1;jettySize=auto;html=1;exitX=0.5;exitY=0;exitDx=0;exitDy=0;entryX=0.615;entryY=0.957;entryDx=0;entryDy=0;entryPerimeter=0;fontSize=16;fontColor=#143642;endArrow=block;endFill=0;strokeColor=#A8201A;fillColor=#FAE5C7;strokeWidth=1;endSize=10;" edge="1" parent="1" source="YMydpdAGPkdJX_1f-UrJ-152" target="YMydpdAGPkdJX_1f-UrJ-22">
          <mxGeometry relative="1" as="geometry" />
        </mxCell>
        <mxCell id="YMydpdAGPkdJX_1f-UrJ-152" value="Population humaine&#xa;" style="swimlane;fontStyle=1;align=center;verticalAlign=top;childLayout=stackLayout;horizontal=1;startSize=26;horizontalStack=0;resizeParent=1;resizeParentMax=0;resizeLast=0;collapsible=1;marginBottom=0;fillColor=#FAE5C7;strokeColor=#0F8B8D;fontColor=#143642;rounded=1;fontSize=16;" vertex="1" parent="1">
          <mxGeometry x="1000" y="-761.5" width="180" height="56" as="geometry" />
        </mxCell>
        <mxCell id="YMydpdAGPkdJX_1f-UrJ-153" value="+ label: char (pop ou indiv)" style="text;strokeColor=none;fillColor=none;align=left;verticalAlign=top;spacingLeft=4;spacingRight=4;overflow=hidden;rotatable=0;points=[[0,0.5],[1,0.5]];portConstraint=eastwest;fontColor=#143642;rounded=1;fontSize=16;" vertex="1" parent="YMydpdAGPkdJX_1f-UrJ-152">
          <mxGeometry y="26" width="180" height="22" as="geometry" />
        </mxCell>
        <mxCell id="YMydpdAGPkdJX_1f-UrJ-154" value="" style="line;strokeWidth=1;fillColor=none;align=left;verticalAlign=middle;spacingTop=-1;spacingLeft=3;spacingRight=3;rotatable=0;labelPosition=right;points=[];portConstraint=eastwest;strokeColor=#0F8B8D;fontColor=#143642;labelBackgroundColor=#DAD2D8;rounded=1;fontSize=16;" vertex="1" parent="YMydpdAGPkdJX_1f-UrJ-152">
          <mxGeometry y="48" width="180" height="8" as="geometry" />
        </mxCell>
        <mxCell id="YMydpdAGPkdJX_1f-UrJ-155" value="Emergence" style="text;html=1;strokeColor=none;fillColor=none;align=center;verticalAlign=middle;whiteSpace=wrap;fontColor=#143642;rounded=1;fontSize=16;" vertex="1" parent="1">
          <mxGeometry x="-1" y="-600" width="60" height="33.5" as="geometry" />
        </mxCell>
        <mxCell id="YMydpdAGPkdJX_1f-UrJ-156" style="edgeStyle=orthogonalEdgeStyle;rounded=1;orthogonalLoop=1;jettySize=auto;html=1;exitX=1;exitY=0.5;exitDx=0;exitDy=0;entryX=0;entryY=0.25;entryDx=0;entryDy=0;fontSize=16;fontColor=#143642;endArrow=none;endFill=0;strokeColor=#A8201A;fillColor=#FAE5C7;" edge="1" parent="1" source="YMydpdAGPkdJX_1f-UrJ-34" target="YMydpdAGPkdJX_1f-UrJ-9">
          <mxGeometry relative="1" as="geometry" />
        </mxCell>
        <mxCell id="YMydpdAGPkdJX_1f-UrJ-157" style="edgeStyle=orthogonalEdgeStyle;rounded=1;orthogonalLoop=1;jettySize=auto;html=1;exitX=1;exitY=0.5;exitDx=0;exitDy=0;entryX=0.25;entryY=1;entryDx=0;entryDy=0;fontSize=16;fontColor=#143642;endArrow=block;endFill=0;strokeColor=#A8201A;fillColor=#FAE5C7;endSize=10;" edge="1" parent="1" source="YMydpdAGPkdJX_1f-UrJ-65" target="YMydpdAGPkdJX_1f-UrJ-60">
          <mxGeometry relative="1" as="geometry" />
        </mxCell>
        <mxCell id="YMydpdAGPkdJX_1f-UrJ-158" style="edgeStyle=orthogonalEdgeStyle;rounded=1;orthogonalLoop=1;jettySize=auto;html=1;exitX=0;exitY=0.5;exitDx=0;exitDy=0;entryX=0.5;entryY=1;entryDx=0;entryDy=0;fontSize=16;fontColor=#143642;endArrow=none;endFill=0;strokeColor=#A8201A;fillColor=#FAE5C7;" edge="1" parent="1" source="YMydpdAGPkdJX_1f-UrJ-38" target="YMydpdAGPkdJX_1f-UrJ-60">
          <mxGeometry relative="1" as="geometry" />
        </mxCell>
        <mxCell id="YMydpdAGPkdJX_1f-UrJ-159" value="Type activité professionnel" style="swimlane;fontStyle=1;align=center;verticalAlign=top;childLayout=stackLayout;horizontal=1;startSize=26;horizontalStack=0;resizeParent=1;resizeParentMax=0;resizeLast=0;collapsible=1;marginBottom=0;fillColor=#FAE5C7;strokeColor=#0F8B8D;fontColor=#143642;rounded=1;fontSize=16;" vertex="1" parent="1">
          <mxGeometry x="735" y="-217" width="220" height="58" as="geometry" />
        </mxCell>
        <mxCell id="YMydpdAGPkdJX_1f-UrJ-160" value="+ label: char" style="text;strokeColor=none;fillColor=none;align=left;verticalAlign=top;spacingLeft=4;spacingRight=4;overflow=hidden;rotatable=0;points=[[0,0.5],[1,0.5]];portConstraint=eastwest;fontColor=#143642;rounded=1;fontSize=16;" vertex="1" parent="YMydpdAGPkdJX_1f-UrJ-159">
          <mxGeometry y="26" width="220" height="24" as="geometry" />
        </mxCell>
        <mxCell id="YMydpdAGPkdJX_1f-UrJ-161" value="" style="line;strokeWidth=1;fillColor=none;align=left;verticalAlign=middle;spacingTop=-1;spacingLeft=3;spacingRight=3;rotatable=0;labelPosition=right;points=[];portConstraint=eastwest;strokeColor=#0F8B8D;fontColor=#143642;labelBackgroundColor=#DAD2D8;rounded=1;fontSize=16;" vertex="1" parent="YMydpdAGPkdJX_1f-UrJ-159">
          <mxGeometry y="50" width="220" height="8" as="geometry" />
        </mxCell>
        <mxCell id="YMydpdAGPkdJX_1f-UrJ-162" value="Forme" style="text;html=1;strokeColor=none;fillColor=none;align=center;verticalAlign=middle;whiteSpace=wrap;fontColor=#143642;rounded=1;fontSize=16;" vertex="1" parent="1">
          <mxGeometry x="100" y="-378.5" width="60" height="30" as="geometry" />
        </mxCell>
        <mxCell id="YMydpdAGPkdJX_1f-UrJ-163" style="edgeStyle=orthogonalEdgeStyle;rounded=1;orthogonalLoop=1;jettySize=auto;html=1;exitX=0.5;exitY=0;exitDx=0;exitDy=0;entryX=0.5;entryY=1;entryDx=0;entryDy=0;fontSize=16;fontColor=#143642;endArrow=block;endFill=0;endSize=10;strokeColor=#A8201A;fillColor=#FAE5C7;" edge="1" parent="1" source="YMydpdAGPkdJX_1f-UrJ-164" target="YMydpdAGPkdJX_1f-UrJ-76">
          <mxGeometry relative="1" as="geometry" />
        </mxCell>
        <mxCell id="YMydpdAGPkdJX_1f-UrJ-164" value="Type urbain" style="swimlane;fontStyle=1;align=center;verticalAlign=top;childLayout=stackLayout;horizontal=1;startSize=26;horizontalStack=0;resizeParent=1;resizeParentMax=0;resizeLast=0;collapsible=1;marginBottom=0;fillColor=#FAE5C7;strokeColor=#0F8B8D;fontColor=#143642;rounded=1;fontSize=16;" vertex="1" parent="1">
          <mxGeometry x="-45" y="-70" width="180" height="56" as="geometry" />
        </mxCell>
        <mxCell id="YMydpdAGPkdJX_1f-UrJ-165" value="+ label: char&#xa;" style="text;strokeColor=none;fillColor=none;align=left;verticalAlign=top;spacingLeft=4;spacingRight=4;overflow=hidden;rotatable=0;points=[[0,0.5],[1,0.5]];portConstraint=eastwest;fontColor=#143642;rounded=1;fontSize=16;" vertex="1" parent="YMydpdAGPkdJX_1f-UrJ-164">
          <mxGeometry y="26" width="180" height="22" as="geometry" />
        </mxCell>
        <mxCell id="YMydpdAGPkdJX_1f-UrJ-166" value="" style="line;strokeWidth=1;fillColor=none;align=left;verticalAlign=middle;spacingTop=-1;spacingLeft=3;spacingRight=3;rotatable=0;labelPosition=right;points=[];portConstraint=eastwest;strokeColor=#0F8B8D;fontColor=#143642;labelBackgroundColor=#DAD2D8;rounded=1;fontSize=16;" vertex="1" parent="YMydpdAGPkdJX_1f-UrJ-164">
          <mxGeometry y="48" width="180" height="8" as="geometry" />
        </mxCell>
        <mxCell id="YMydpdAGPkdJX_1f-UrJ-167" style="edgeStyle=orthogonalEdgeStyle;rounded=1;orthogonalLoop=1;jettySize=auto;html=1;exitX=0.5;exitY=1;exitDx=0;exitDy=0;fontSize=16;fontColor=#143642;endArrow=block;endFill=0;endSize=10;strokeColor=#A8201A;fillColor=#FAE5C7;" edge="1" parent="1" source="YMydpdAGPkdJX_1f-UrJ-50" target="YMydpdAGPkdJX_1f-UrJ-50">
          <mxGeometry relative="1" as="geometry" />
        </mxCell>
        <mxCell id="YMydpdAGPkdJX_1f-UrJ-168" value="&lt;font style=&quot;font-size: 16px;&quot;&gt;augmente&lt;/font&gt;" style="text;html=1;strokeColor=none;fillColor=none;align=center;verticalAlign=middle;whiteSpace=wrap;rounded=0;dashed=1;labelBorderColor=none;sketch=1;fontSize=16;fontColor=#143642;" vertex="1" parent="1">
          <mxGeometry x="980" y="-413" width="60" height="33.5" as="geometry" />
        </mxCell>
        <mxCell id="YMydpdAGPkdJX_1f-UrJ-169" value="&lt;font style=&quot;font-size: 16px;&quot;&gt;augmente&lt;/font&gt;" style="text;html=1;strokeColor=none;fillColor=none;align=center;verticalAlign=middle;whiteSpace=wrap;rounded=0;dashed=1;labelBorderColor=none;sketch=1;fontSize=16;fontColor=#143642;" vertex="1" parent="1">
          <mxGeometry x="1130" y="-443.5" width="60" height="33.5" as="geometry" />
        </mxCell>
        <mxCell id="YMydpdAGPkdJX_1f-UrJ-170" style="edgeStyle=orthogonalEdgeStyle;rounded=1;orthogonalLoop=1;jettySize=auto;html=1;exitX=0;exitY=0.5;exitDx=0;exitDy=0;entryX=0;entryY=1;entryDx=0;entryDy=0;fontSize=16;fontColor=#143642;endArrow=block;endFill=0;endSize=10;strokeColor=#A8201A;fillColor=#FAE5C7;" edge="1" parent="1" source="YMydpdAGPkdJX_1f-UrJ-160" target="YMydpdAGPkdJX_1f-UrJ-134">
          <mxGeometry relative="1" as="geometry" />
        </mxCell>
        <mxCell id="YMydpdAGPkdJX_1f-UrJ-171" value="H" style="swimlane;fontStyle=4;childLayout=stackLayout;horizontal=1;startSize=26;fillColor=none;horizontalStack=0;resizeParent=1;resizeParentMax=0;resizeLast=0;collapsible=1;marginBottom=0;fontFamily=Helvetica;fontSize=11;fontColor=#143642;strokeColor=#0F8B8D;" vertex="1" parent="1">
          <mxGeometry x="1310" y="-629" width="90" height="52" as="geometry">
            <mxRectangle x="610" y="510" width="40" height="26" as="alternateBounds" />
          </mxGeometry>
        </mxCell>
        <mxCell id="YMydpdAGPkdJX_1f-UrJ-180" style="edgeStyle=orthogonalEdgeStyle;rounded=0;orthogonalLoop=1;jettySize=auto;html=1;exitX=1;exitY=0.5;exitDx=0;exitDy=0;entryX=0.5;entryY=0;entryDx=0;entryDy=0;endSize=10;endArrow=none;endFill=0;" edge="1" parent="1" source="YMydpdAGPkdJX_1f-UrJ-175" target="YMydpdAGPkdJX_1f-UrJ-179">
          <mxGeometry relative="1" as="geometry" />
        </mxCell>
        <mxCell id="YMydpdAGPkdJX_1f-UrJ-205" style="edgeStyle=orthogonalEdgeStyle;rounded=0;orthogonalLoop=1;jettySize=auto;html=1;exitX=0.5;exitY=1;exitDx=0;exitDy=0;entryX=0.519;entryY=-0.053;entryDx=0;entryDy=0;startArrow=none;startFill=0;endArrow=classic;endFill=1;endSize=10;entryPerimeter=0;dashed=1;" edge="1" parent="1" source="YMydpdAGPkdJX_1f-UrJ-175" target="YMydpdAGPkdJX_1f-UrJ-17">
          <mxGeometry relative="1" as="geometry" />
        </mxCell>
        <mxCell id="YMydpdAGPkdJX_1f-UrJ-207" style="edgeStyle=orthogonalEdgeStyle;rounded=0;orthogonalLoop=1;jettySize=auto;html=1;exitX=0.5;exitY=0;exitDx=0;exitDy=0;entryX=0.5;entryY=1;entryDx=0;entryDy=0;startArrow=none;startFill=0;endArrow=none;endFill=0;endSize=10;" edge="1" parent="1" source="YMydpdAGPkdJX_1f-UrJ-175" target="YMydpdAGPkdJX_1f-UrJ-187">
          <mxGeometry relative="1" as="geometry">
            <Array as="points">
              <mxPoint x="499" y="-1400" />
              <mxPoint x="1670" y="-1400" />
              <mxPoint x="1670" y="200" />
              <mxPoint x="429" y="200" />
            </Array>
          </mxGeometry>
        </mxCell>
        <mxCell id="YMydpdAGPkdJX_1f-UrJ-175" value="&lt;u&gt;Dommages de piqûres&amp;nbsp;sur Claire&lt;/u&gt;" style="html=1;fillColor=#FAE5C7;strokeColor=#0F8B8D;fontColor=#143642;" vertex="1" parent="1">
          <mxGeometry x="390" y="-1380" width="217.5" height="40" as="geometry" />
        </mxCell>
        <mxCell id="YMydpdAGPkdJX_1f-UrJ-178" style="edgeStyle=orthogonalEdgeStyle;rounded=0;orthogonalLoop=1;jettySize=auto;html=1;exitX=0;exitY=0.5;exitDx=0;exitDy=0;entryX=0.5;entryY=1;entryDx=0;entryDy=0;dashed=1;dashPattern=1 1;endSize=10;" edge="1" parent="1" source="YMydpdAGPkdJX_1f-UrJ-172" target="YMydpdAGPkdJX_1f-UrJ-148">
          <mxGeometry relative="1" as="geometry">
            <Array as="points">
              <mxPoint x="1310" y="-620" />
              <mxPoint x="908" y="-620" />
            </Array>
          </mxGeometry>
        </mxCell>
        <mxCell id="YMydpdAGPkdJX_1f-UrJ-172" value="label=&quot;Humain&quot;" style="text;strokeColor=none;fillColor=none;align=left;verticalAlign=top;spacingLeft=4;spacingRight=4;overflow=hidden;rotatable=0;points=[[0,0.5],[1,0.5]];portConstraint=eastwest;fontFamily=Helvetica;fontSize=11;fontColor=#143642;" vertex="1" parent="1">
          <mxGeometry x="1310" y="-603" width="90" height="26" as="geometry" />
        </mxCell>
        <mxCell id="YMydpdAGPkdJX_1f-UrJ-181" style="edgeStyle=orthogonalEdgeStyle;rounded=0;orthogonalLoop=1;jettySize=auto;html=1;exitX=0.5;exitY=1;exitDx=0;exitDy=0;entryX=0.5;entryY=0;entryDx=0;entryDy=0;dashed=1;dashPattern=1 1;endSize=10;" edge="1" parent="1" source="YMydpdAGPkdJX_1f-UrJ-179" target="YMydpdAGPkdJX_1f-UrJ-171">
          <mxGeometry relative="1" as="geometry" />
        </mxCell>
        <mxCell id="YMydpdAGPkdJX_1f-UrJ-183" style="edgeStyle=orthogonalEdgeStyle;rounded=0;orthogonalLoop=1;jettySize=auto;html=1;exitX=0;exitY=0.5;exitDx=0;exitDy=0;entryX=1;entryY=0.5;entryDx=0;entryDy=0;dashed=1;dashPattern=1 1;endSize=10;" edge="1" parent="1" source="YMydpdAGPkdJX_1f-UrJ-179" target="YMydpdAGPkdJX_1f-UrJ-7">
          <mxGeometry relative="1" as="geometry" />
        </mxCell>
        <mxCell id="YMydpdAGPkdJX_1f-UrJ-186" style="edgeStyle=orthogonalEdgeStyle;rounded=0;orthogonalLoop=1;jettySize=auto;html=1;exitX=1;exitY=0.5;exitDx=0;exitDy=0;endSize=10;endArrow=none;endFill=0;" edge="1" parent="1" source="YMydpdAGPkdJX_1f-UrJ-179">
          <mxGeometry relative="1" as="geometry">
            <mxPoint x="1360" y="-440" as="targetPoint" />
            <Array as="points">
              <mxPoint x="1430" y="-955" />
              <mxPoint x="1430" y="-480" />
              <mxPoint x="1360" y="-480" />
            </Array>
          </mxGeometry>
        </mxCell>
        <mxCell id="YMydpdAGPkdJX_1f-UrJ-179" value="&lt;u&gt;Claire&lt;/u&gt;" style="html=1;fillColor=#FAE5C7;strokeColor=#0F8B8D;fontColor=#143642;" vertex="1" parent="1">
          <mxGeometry x="1224.5" y="-980" width="135" height="50" as="geometry" />
        </mxCell>
        <mxCell id="YMydpdAGPkdJX_1f-UrJ-185" style="edgeStyle=orthogonalEdgeStyle;rounded=0;orthogonalLoop=1;jettySize=auto;html=1;exitX=0.5;exitY=1;exitDx=0;exitDy=0;entryX=0.5;entryY=1;entryDx=0;entryDy=0;endSize=10;startArrow=none;startFill=0;endArrow=none;endFill=0;" edge="1" parent="1" source="YMydpdAGPkdJX_1f-UrJ-184" target="YMydpdAGPkdJX_1f-UrJ-98">
          <mxGeometry relative="1" as="geometry" />
        </mxCell>
        <mxCell id="YMydpdAGPkdJX_1f-UrJ-184" value="&lt;u&gt;Possède de l&#39;antimoustique&lt;br&gt;&lt;/u&gt;" style="html=1;fillColor=#FAE5C7;strokeColor=#0F8B8D;fontColor=#143642;" vertex="1" parent="1">
          <mxGeometry x="1269.75" y="-429.25" width="170.5" height="66" as="geometry" />
        </mxCell>
        <mxCell id="YMydpdAGPkdJX_1f-UrJ-188" style="edgeStyle=orthogonalEdgeStyle;rounded=0;orthogonalLoop=1;jettySize=auto;html=1;exitX=0.25;exitY=0;exitDx=0;exitDy=0;entryX=0;entryY=0.5;entryDx=0;entryDy=0;dashed=1;dashPattern=1 1;endSize=10;" edge="1" parent="1" source="YMydpdAGPkdJX_1f-UrJ-187" target="YMydpdAGPkdJX_1f-UrJ-2">
          <mxGeometry relative="1" as="geometry">
            <Array as="points">
              <mxPoint x="380" y="50" />
              <mxPoint x="380" y="-811" />
            </Array>
          </mxGeometry>
        </mxCell>
        <mxCell id="YMydpdAGPkdJX_1f-UrJ-195" style="edgeStyle=orthogonalEdgeStyle;rounded=0;orthogonalLoop=1;jettySize=auto;html=1;exitX=0.5;exitY=0;exitDx=0;exitDy=0;endSize=10;endArrow=none;endFill=0;" edge="1" parent="1" source="YMydpdAGPkdJX_1f-UrJ-187">
          <mxGeometry relative="1" as="geometry">
            <mxPoint x="507" y="-190" as="targetPoint" />
          </mxGeometry>
        </mxCell>
        <mxCell id="YMydpdAGPkdJX_1f-UrJ-187" value="&lt;u&gt;Claire présente sur une zone où.&lt;br&gt;&amp;nbsp;il y a une forte occurence de moustiques&amp;nbsp;&lt;/u&gt;" style="html=1;fillColor=#FAE5C7;strokeColor=#0F8B8D;fontColor=#143642;" vertex="1" parent="1">
          <mxGeometry x="278.75" y="50" width="301.25" height="70" as="geometry" />
        </mxCell>
        <mxCell id="YMydpdAGPkdJX_1f-UrJ-198" style="edgeStyle=orthogonalEdgeStyle;rounded=0;orthogonalLoop=1;jettySize=auto;html=1;exitX=1;exitY=0.5;exitDx=0;exitDy=0;entryX=1;entryY=0.5;entryDx=0;entryDy=0;endSize=10;endArrow=none;endFill=0;" edge="1" parent="1" source="YMydpdAGPkdJX_1f-UrJ-189" target="YMydpdAGPkdJX_1f-UrJ-104">
          <mxGeometry relative="1" as="geometry">
            <Array as="points">
              <mxPoint x="970" y="-85" />
              <mxPoint x="970" y="-386" />
            </Array>
          </mxGeometry>
        </mxCell>
        <mxCell id="YMydpdAGPkdJX_1f-UrJ-189" value="&lt;u&gt;26 ans&lt;/u&gt;" style="html=1;fillColor=#FAE5C7;strokeColor=#0F8B8D;fontColor=#143642;" vertex="1" parent="1">
          <mxGeometry x="827.5" y="-110" width="102.5" height="50" as="geometry" />
        </mxCell>
        <mxCell id="YMydpdAGPkdJX_1f-UrJ-199" style="edgeStyle=orthogonalEdgeStyle;rounded=0;orthogonalLoop=1;jettySize=auto;html=1;exitX=1;exitY=0.5;exitDx=0;exitDy=0;entryX=1;entryY=0.5;entryDx=0;entryDy=0;endSize=10;endArrow=none;endFill=0;" edge="1" parent="1" source="YMydpdAGPkdJX_1f-UrJ-190" target="YMydpdAGPkdJX_1f-UrJ-107">
          <mxGeometry relative="1" as="geometry">
            <Array as="points">
              <mxPoint x="1000" y="-25" />
              <mxPoint x="1000" y="-343" />
            </Array>
          </mxGeometry>
        </mxCell>
        <mxCell id="YMydpdAGPkdJX_1f-UrJ-190" value="&lt;u&gt;Aucun héritage&lt;/u&gt;" style="html=1;fillColor=#FAE5C7;strokeColor=#0F8B8D;fontColor=#143642;" vertex="1" parent="1">
          <mxGeometry x="830" y="-50" width="102.5" height="50" as="geometry" />
        </mxCell>
        <mxCell id="YMydpdAGPkdJX_1f-UrJ-200" style="edgeStyle=orthogonalEdgeStyle;rounded=0;orthogonalLoop=1;jettySize=auto;html=1;exitX=1;exitY=0.75;exitDx=0;exitDy=0;entryX=1;entryY=0.5;entryDx=0;entryDy=0;endSize=10;endArrow=none;endFill=0;" edge="1" parent="1" source="YMydpdAGPkdJX_1f-UrJ-191" target="YMydpdAGPkdJX_1f-UrJ-110">
          <mxGeometry relative="1" as="geometry" />
        </mxCell>
        <mxCell id="YMydpdAGPkdJX_1f-UrJ-191" value="&lt;u&gt;Connait les risques liées aux moustiques&lt;/u&gt;" style="html=1;fillColor=#FAE5C7;strokeColor=#0F8B8D;fontColor=#143642;" vertex="1" parent="1">
          <mxGeometry x="830" y="10" width="280" height="50" as="geometry" />
        </mxCell>
        <mxCell id="YMydpdAGPkdJX_1f-UrJ-201" style="edgeStyle=orthogonalEdgeStyle;rounded=0;orthogonalLoop=1;jettySize=auto;html=1;exitX=1;exitY=0.5;exitDx=0;exitDy=0;endSize=10;entryX=1;entryY=0.5;entryDx=0;entryDy=0;endArrow=none;endFill=0;" edge="1" parent="1" source="YMydpdAGPkdJX_1f-UrJ-192" target="YMydpdAGPkdJX_1f-UrJ-113">
          <mxGeometry relative="1" as="geometry">
            <mxPoint x="1000" y="-220" as="targetPoint" />
            <Array as="points">
              <mxPoint x="1110" y="-245" />
            </Array>
          </mxGeometry>
        </mxCell>
        <mxCell id="YMydpdAGPkdJX_1f-UrJ-192" value="&lt;u&gt;Ne se déplace jamais sans antimoustique&lt;/u&gt;" style="html=1;fillColor=#FAE5C7;strokeColor=#0F8B8D;fontColor=#143642;" vertex="1" parent="1">
          <mxGeometry x="830" y="70" width="280" height="50" as="geometry" />
        </mxCell>
        <mxCell id="YMydpdAGPkdJX_1f-UrJ-202" style="edgeStyle=orthogonalEdgeStyle;rounded=0;orthogonalLoop=1;jettySize=auto;html=1;exitX=1;exitY=0.5;exitDx=0;exitDy=0;endSize=10;endArrow=none;endFill=0;" edge="1" parent="1" source="YMydpdAGPkdJX_1f-UrJ-193" target="YMydpdAGPkdJX_1f-UrJ-160">
          <mxGeometry relative="1" as="geometry" />
        </mxCell>
        <mxCell id="YMydpdAGPkdJX_1f-UrJ-193" value="&lt;u&gt;Étudiante en doctorat&lt;/u&gt;" style="html=1;fillColor=#FAE5C7;strokeColor=#0F8B8D;fontColor=#143642;" vertex="1" parent="1">
          <mxGeometry x="830" y="130" width="280" height="50" as="geometry" />
        </mxCell>
        <mxCell id="YMydpdAGPkdJX_1f-UrJ-203" style="edgeStyle=orthogonalEdgeStyle;rounded=0;orthogonalLoop=1;jettySize=auto;html=1;exitX=0.5;exitY=1;exitDx=0;exitDy=0;entryX=0.5;entryY=1;entryDx=0;entryDy=0;endSize=10;startArrow=none;startFill=0;endArrow=none;endFill=0;" edge="1" parent="1" source="YMydpdAGPkdJX_1f-UrJ-194" target="YMydpdAGPkdJX_1f-UrJ-101">
          <mxGeometry relative="1" as="geometry" />
        </mxCell>
        <mxCell id="YMydpdAGPkdJX_1f-UrJ-194" value="&lt;u&gt;Action de lutte antivectorielle&lt;br&gt;&amp;nbsp;dans le quartier où vit Claire&lt;br&gt;&lt;/u&gt;" style="html=1;fillColor=#FAE5C7;strokeColor=#0F8B8D;fontColor=#143642;" vertex="1" parent="1">
          <mxGeometry x="1460" y="-429.25" width="170.5" height="66" as="geometry" />
        </mxCell>
        <mxCell id="YMydpdAGPkdJX_1f-UrJ-197" style="edgeStyle=orthogonalEdgeStyle;rounded=0;orthogonalLoop=1;jettySize=auto;html=1;exitX=0.5;exitY=0;exitDx=0;exitDy=0;entryX=0.5;entryY=1;entryDx=0;entryDy=0;endSize=10;endArrow=none;endFill=0;" edge="1" parent="1" source="YMydpdAGPkdJX_1f-UrJ-196" target="YMydpdAGPkdJX_1f-UrJ-88">
          <mxGeometry relative="1" as="geometry" />
        </mxCell>
        <mxCell id="YMydpdAGPkdJX_1f-UrJ-196" value="&lt;u&gt;Quartier des Arceaux,&lt;br&gt;forte densité de population humaine&lt;/u&gt;" style="html=1;fillColor=#FAE5C7;strokeColor=#0F8B8D;fontColor=#143642;" vertex="1" parent="1">
          <mxGeometry x="400" y="-258" width="220" height="66" as="geometry" />
        </mxCell>
        <mxCell id="YMydpdAGPkdJX_1f-UrJ-208" style="edgeStyle=orthogonalEdgeStyle;rounded=0;orthogonalLoop=1;jettySize=auto;html=1;exitX=0.5;exitY=0;exitDx=0;exitDy=0;entryX=1;entryY=0.5;entryDx=0;entryDy=0;startArrow=none;startFill=0;endArrow=none;endFill=0;endSize=10;" edge="1" parent="1" source="YMydpdAGPkdJX_1f-UrJ-204" target="YMydpdAGPkdJX_1f-UrJ-10">
          <mxGeometry relative="1" as="geometry">
            <Array as="points">
              <mxPoint x="-15" y="10" />
              <mxPoint x="370" y="10" />
              <mxPoint x="370" y="-1001" />
            </Array>
          </mxGeometry>
        </mxCell>
        <mxCell id="YMydpdAGPkdJX_1f-UrJ-204" value="&lt;u&gt;Claire présente sur une zone où &lt;br&gt;il y a une forte occurence de moustiques&amp;nbsp;&lt;/u&gt;" style="html=1;fillColor=#FAE5C7;strokeColor=#0F8B8D;fontColor=#143642;" vertex="1" parent="1">
          <mxGeometry x="-166.87" y="50" width="246.87" height="70" as="geometry" />
        </mxCell>
      </root>
    </mxGraphModel>
  </diagram>
</mxfile>
